<svg width="135" height="37" viewBox="0 0 135 37" fill="none" xmlns="http://www.w3.org/2000/svg">
<path d="M116.47 26.9335C116.47 24.7279 118.206 21.4334 122.983 21.4334C128.136 21.4723 129.501 25.0501 129.501 26.9335C129.501 29.1001 127.77 32.3223 122.983 32.3223C117.102 32.3223 116.47 28.5557 116.47 26.9335ZM111.455 26.8612C111.455 27.7668 111.777 35.7612 122.983 35.7612C134.189 35.7612 134.516 27.7723 134.516 26.8612C134.516 26.4946 134.388 18.0112 122.983 18.0112C111.577 18.0112 111.455 26.4946 111.455 26.8612Z" fill="#231815"/>
<path d="M46.5333 26.8167C46.5222 30.0334 48.1032 32.7334 50.766 34.139C55.6865 36.739 61.6889 35.8501 65.6664 34.1501L65.9049 34.0223C66.1546 33.8723 66.4541 34.1501 66.8092 34.5667L67.486 34.1723L64.4571 29.039L63.8025 29.4167C64.0632 29.9556 64.0798 30.3667 63.8413 30.5056L63.6138 30.6501C59.4477 32.6556 56.1303 32.6778 53.462 30.7278C52.236 29.8279 51.476 28.3723 51.4316 26.8112C51.476 25.2445 52.236 23.789 53.462 22.8834C56.1248 20.939 59.4422 20.9612 63.6138 22.9612L63.7581 23.0501C64.0022 23.2001 64.1464 23.4612 63.8413 24.189L64.4737 24.5667L67.4749 19.4556L66.8424 19.0834C66.6095 19.4834 66.21 19.7501 65.8772 19.5667L65.6664 19.4667C61.6889 17.7723 55.6865 16.8834 50.766 19.4834C48.1032 20.889 46.5222 23.589 46.5333 26.8167Z" fill="#231815"/>
<path d="M15.7719 35.389C16.0604 35.389 16.2601 35.7668 16.2768 36.1057H17.07V31.2224H16.2768C16.2379 31.4835 16.0604 31.9501 15.7719 31.9501C15.7719 31.9501 7.43412 31.9557 6.78507 31.9557C6.78507 31.289 6.78507 19.5001 6.78507 19.5001C6.78507 19.2168 7.36756 19.0168 8.33281 18.9446V18.2168H0.705078V18.9446C1.66479 19.0112 2.25836 19.2112 2.25836 19.5001V34.1057C2.25836 34.3946 1.66479 34.5946 0.705078 34.6612V35.4001H15.7664L15.7719 35.389Z" fill="#231815"/>
<path d="M40.6515 19.5224C40.6515 19.2335 41.2396 19.0168 42.2048 18.9501V18.2223H34.5438V18.9501C35.5035 19.0168 36.1026 19.2335 36.1026 19.5224V28.189C36.1026 30.189 35.7698 32.3335 31.759 32.3335C27.7482 32.3335 27.1546 30.2779 27.1546 28.0557V19.5112C27.1546 19.2223 27.7482 19.0112 28.7079 18.9446V18.2168H21.0469V18.9446C22.0121 19.0112 22.6113 19.2223 22.6113 19.5112V29.1668C22.6168 34.6446 25.9675 35.7168 31.7534 35.7168C38.072 35.7168 40.646 33.8557 40.646 29.2946V19.5168L40.6515 19.5224Z" fill="#231815"/>
<path d="M74.2753 34.0835C74.2753 34.3724 73.6762 34.6001 72.7109 34.6668V35.3946H80.6438V34.6668C79.6841 34.5946 79.1016 34.3724 79.1016 34.0835V19.5279C79.1016 19.239 79.6841 19.0112 80.6438 18.9446V18.2168H72.7109V18.9446C73.6762 19.0112 74.2753 19.239 74.2753 19.5279V34.0835Z" fill="#231815"/>
<path d="M91.932 21.7112V31.8723H97.08C100.386 31.8723 102.361 29.339 102.361 26.889C102.361 24.439 100.192 21.7112 97.0689 21.7112H91.932ZM107.071 26.8168C107.071 30.9446 104.075 35.3946 97.4794 35.3946H85.8242V34.6501C86.7839 34.5835 87.383 34.3612 87.383 34.0668V19.5279C87.383 19.239 86.7895 19.0112 85.8242 18.9446V18.2168H97.3352C104.025 18.2112 107.065 22.6668 107.065 26.8168" fill="#231815"/>
<path d="M36.9902 0.26123L25.8398 14.6723H29.4512L40.5905 0.26123H36.9902Z" fill="#231815"/>
</svg>
