<svg width="161" height="16" viewBox="0 0 161 16" fill="none" xmlns="http://www.w3.org/2000/svg">
<g clip-path="url(#clip0_307_2895)">
<path d="M155.505 12.5187C155.505 14.0689 156.739 15.3319 158.253 15.3319C159.766 15.3319 161 14.0718 161 12.5187C161 10.9656 159.769 9.70844 158.253 9.70844C156.736 9.70844 155.505 10.9685 155.505 12.5187ZM155.841 12.5187C155.841 11.159 156.924 10.0484 158.255 10.0484C159.586 10.0484 160.667 11.1561 160.667 12.5187C160.667 13.8813 159.584 14.9861 158.255 14.9861C156.927 14.9861 155.841 13.8784 155.841 12.5187Z" fill="#E83534"/>
<path d="M157.443 11.2H158.52C158.734 11.2 159.093 11.241 159.093 11.7451C159.093 12.2491 158.76 12.3106 158.443 12.3106H157.443V11.2ZM157.443 12.6887H158.489C159.005 12.6887 159.059 13.0022 159.059 13.2718C159.059 13.3949 159.07 13.8931 159.133 14.0923H159.66V14.0191C159.529 13.9429 159.507 13.8755 159.501 13.6909L159.475 13.0989C159.458 12.6447 159.273 12.5626 159.09 12.4835C159.296 12.3605 159.532 12.1817 159.532 11.7011C159.532 11.0066 159.008 10.822 158.483 10.822H157.007V14.0894H157.437V12.6857L157.443 12.6887Z" fill="#E83534"/>
<path d="M40.1377 3.92379L40.8047 1.45639H27.816L24.0166 14.6022H37.2931L37.9601 12.1377H29.8026L30.5523 9.0813H37.6551L38.3221 6.66079H31.2306L32.0971 3.92379H40.1377Z" fill="#E83534"/>
<path d="M54.8533 1.45639L52.3821 10.3003L49.7599 1.46225H42.5743L39.0742 14.6022H42.8252L45.4189 5.18679L48.235 14.6022H51.1964H53.6647H54.9416L58.6014 1.45639H54.8533Z" fill="#E83534"/>
<path d="M74.8764 1.45639H59.8185L59.1914 3.86811H64.319L61.3576 14.6022H66.2316L69.193 3.86811H74.2437L74.8764 1.45639Z" fill="#E83534"/>
<path d="M81.0277 14.6022H85.9757L85.1378 1.45639H80.1897V1.46225H78.0719L69.0537 14.6022H72.9928L74.7941 12.1318H80.8139L81.0248 14.6022H81.0277ZM76.1993 9.93112L80.3436 3.88569L80.7312 9.93112H76.1993Z" fill="#E83534"/>
<path d="M92.6477 12.2403L95.4751 1.45639H90.567L87.1182 14.6022H88.5918H92.0292H99.9672L100.506 12.2403H92.6477Z" fill="#E83534"/>
<path d="M112.94 1.02996C111.232 0.962556 104.759 1.02996 104.759 1.02996L101 14.1757H106.079L107.444 9.39919H112.792C114.784 9.39919 118.236 8.35889 118.503 4.99772C118.763 1.78014 115.71 1.13545 112.937 1.02996H112.94ZM114.157 4.94497C113.897 7.03728 111.745 7.14278 111.745 7.14278H108.183L109.309 3.1164C109.309 3.1164 111.794 3.17208 112.532 3.17208C113.27 3.17208 114.419 2.8468 114.16 4.94204L114.157 4.94497Z" fill="#E83534"/>
<path d="M129.952 1.45641C128.245 1.38901 121.521 1.45641 121.521 1.45641L117.762 14.6022H122.838L124.186 9.88132L128.353 14.6022H133.435L129.22 9.82564H129.81C131.799 9.82564 135.619 8.78535 135.892 5.42417C136.149 2.20659 132.728 1.5619 129.952 1.45641ZM131.172 5.37143C130.91 7.46373 128.761 7.56923 128.761 7.56923H124.942L126.067 3.54286C126.067 3.54286 128.812 3.59853 129.548 3.59853C130.283 3.59853 131.432 3.27326 131.172 5.3685V5.37143Z" fill="#E83534"/>
<path d="M147.971 1.02563C141.783 1.02563 138.822 2.36776 137.459 7.24981C136.1 12.1319 136.254 14.8396 143.961 14.8396C152.711 14.8396 153.162 13.7143 154.969 7.27618C156.776 0.84395 147.971 1.02857 147.971 1.02857V1.02563ZM149.624 7.78314C148.051 12.2637 147.421 12.6652 144.514 12.6652C141 12.6652 141.59 9.82563 142.325 7.78314C143.06 5.74651 143.411 2.94212 147.13 2.94212C148.179 2.94212 151.355 2.84835 149.624 7.78314Z" fill="#E83534"/>
<path d="M15.7734 9.90475L14.485 14.3707H8.49379L9.77926 9.90475H1.89258L0 15.9971H9.49423C13.4732 15.9971 21.4967 16.252 23.6429 9.90475H15.7762H15.7734Z" fill="#E83534"/>
<path d="M10.7742 6.13039L12.1937 1.4857H18.1906L16.7684 6.13039H24.8517C26.1771 -0.621263 17.8287 0.0146344 17.8287 0.0146344H4.8913L2.95312 6.13039H10.7742Z" fill="#E83534"/>
</g>
<defs>
<clipPath id="clip0_307_2895">
<rect width="161" height="16" fill="white"/>
</clipPath>
</defs>
</svg>
