<svg width="30" height="30" viewBox="0 0 30 30" fill="none" xmlns="http://www.w3.org/2000/svg">
<g id="_&#235;&#160;&#136;&#236;&#157;&#180;&#236;&#150;&#180;_5" clip-path="url(#clip0_307_2820)">
<path id="Vector" d="M12.8269 3.08899H17.2967C17.7877 3.08899 18.1866 3.4879 18.1866 3.97886V6.03478H11.7529V4.16298C11.7529 3.56973 12.2337 3.08899 12.8269 3.08899Z" fill="#BEE1E4"/>
<path id="Vector_2" d="M18.6362 21.6638L14.9948 19.5466L11.3535 21.6638V6.96559C11.3535 6.37234 11.8343 5.8916 12.4275 5.8916H17.7463C18.2373 5.8916 18.6362 6.29051 18.6362 6.78148V21.6536V21.6638Z" fill="#E8C977"/>
<path id="Vector_3" d="M11.9574 6.5053H3.09961V4.86875C3.39623 1.2172 4.66456 0.347778 7.62058 0.347778C9.20599 1.8309 11.9574 2.29118 11.9574 4.68463V6.5053Z" fill="#F57D7C"/>
<path id="Vector_4" d="M18.0938 6.5053H26.9516V4.86875C26.6447 1.2172 25.3866 0.347778 22.4306 0.347778C20.8452 1.8309 18.0938 2.29118 18.0938 4.68463V6.5053Z" fill="#F57D7C"/>
<g id="Group">
<path id="Vector_5" d="M14.9951 19.5465V29.4579" stroke="black" stroke-width="0.85" stroke-miterlimit="10"/>
<g id="Group_2">
<path id="Vector_6" d="M0.439453 16.8155H11.3532" stroke="black" stroke-width="0.85" stroke-miterlimit="10"/>
<path id="Vector_7" d="M18.6357 16.8155H29.5597" stroke="black" stroke-width="0.85" stroke-miterlimit="10"/>
</g>
<g id="Group_3">
<path id="Vector_8" d="M3.12012 7.10867V5.48235C3.12012 1.04321 5.60563 -0.450139 8.03999 0.930699L12.2848 3.68215" stroke="black" stroke-width="0.85" stroke-miterlimit="10"/>
<path id="Vector_9" d="M26.8805 7.10873V5.48241C26.8805 1.03304 24.3848 -0.45008 21.9606 0.930759L17.7158 3.68221" stroke="black" stroke-width="0.85" stroke-miterlimit="10"/>
<g id="Vector_10">
<path d="M11.7529 6.25974V4.48C11.7529 3.71286 12.3769 3.08893 13.144 3.08893H16.8058C17.5729 3.08893 18.1968 3.71286 18.1968 4.48V6.25974" fill="#F57D7C"/>
<path d="M11.7529 6.25974V4.48C11.7529 3.71286 12.3769 3.08893 13.144 3.08893H16.8058C17.5729 3.08893 18.1968 3.71286 18.1968 4.48V6.25974" stroke="black" stroke-width="0.85" stroke-miterlimit="10"/>
</g>
</g>
<path id="Vector_11" d="M18.6363 6.50525H24.7018C27.3816 6.50525 29.5603 8.67368 29.5603 11.3638V24.7119C29.5603 27.3917 27.3918 29.5704 24.7018 29.5704H5.28819C2.60834 29.5704 0.429688 27.4019 0.429688 24.7119V11.3638C0.429688 8.68391 2.59812 6.50525 5.28819 6.50525H11.3537" stroke="black" stroke-width="0.85" stroke-miterlimit="10"/>
<path id="Vector_12" d="M17.6645 21.541L14.9948 19.5056L12.3252 21.541C11.9263 21.8479 11.3535 21.5615 11.3535 21.0603V7.10872C11.3535 6.43365 11.8956 5.89154 12.5707 5.89154H17.4292C18.1043 5.89154 18.6464 6.43365 18.6464 7.10872V21.0501C18.6464 21.5513 18.0736 21.8377 17.6747 21.5308L17.6645 21.541Z" fill="#F57D7C" stroke="black" stroke-width="0.85" stroke-miterlimit="10"/>
</g>
</g>
<defs>
<clipPath id="clip0_307_2820">
<rect width="30" height="30" fill="white"/>
</clipPath>
</defs>
</svg>
