<svg width="76" height="29" viewBox="0 0 76 29" fill="none" xmlns="http://www.w3.org/2000/svg">
<g clip-path="url(#clip0_307_1765)">
<path d="M18.2554 6.87656C18.9326 6.87656 19.4649 5.9867 19.4649 4.85054C19.4649 3.71437 18.9326 2.81259 18.2554 2.81259C17.5783 2.81259 17.0146 3.70643 17.0146 4.85054C17.0146 5.99465 17.5548 6.87656 18.2554 6.87656Z" fill="#6C5D35"/>
<path d="M4.25081 19.2671V13.1175C4.25081 12.5812 4.89272 12.5177 5.17062 12.5137C5.65205 12.5057 6.14131 12.5018 6.62666 12.5018C9.97713 12.5018 11.4801 14.5199 11.4801 16.522C11.4801 19.2194 8.88118 20.6297 6.31745 20.6297C6.04346 20.6297 5.76556 20.6138 5.49549 20.5821L5.40938 20.5662C5.26456 20.5662 5.1667 20.6615 5.15496 20.7966L5.14713 20.8522L5.17845 20.9197C5.20976 20.9952 5.28804 21.0508 5.39764 21.0866L5.45243 21.1104C6.01998 21.2574 6.68537 21.3368 7.36643 21.3368C10.5721 21.3368 14.0204 19.724 14.0204 16.1764C14.0204 14.0193 12.5957 12.3349 10.0906 11.5047C11.8402 10.6903 12.6426 9.12109 12.6426 7.92136C12.6426 5.10876 10.0593 3.67465 4.96709 3.67465C4.07467 3.67465 3.10789 3.72232 2.01586 3.80972L1.85146 3.82164V20.5503C1.85146 21.3051 1.73796 22.036 1.54617 22.5167L1.41309 22.8584L1.75753 22.7551C3.05309 22.3777 4.24689 21.6944 4.24689 19.2592L4.25081 19.2671ZM4.17644 10.9882V5.29945C4.17644 4.84657 4.27038 4.80287 4.50131 4.74328C4.75181 4.63999 5.20585 4.58835 5.85167 4.58835C6.88891 4.58835 10.2824 4.84657 10.2824 8.1915C10.2824 10.5194 8.97121 11.4729 5.60117 11.592C5.34284 11.604 5.11974 11.6079 4.93186 11.6079C4.17644 11.6079 4.17644 11.592 4.17644 10.9882Z" fill="#6C5D35"/>
<path d="M37.4698 17.7655C38.4444 17.7655 39.4425 17.5549 40.4249 17.1378C40.4523 17.1338 40.4719 17.1179 40.4797 17.1179L40.6128 17.0266V17.0107C40.7185 16.9074 40.6872 16.7683 40.6559 16.7048C40.5541 16.4823 40.2684 16.5181 40.2684 16.5181C39.8026 16.6492 39.3368 16.7644 38.8319 16.7763H38.6871C36.8592 16.7763 33.7631 16.1407 33.5557 11.8661C33.5557 11.7708 33.5635 11.7033 33.5948 11.6794C33.6105 11.6596 33.6614 11.6278 33.814 11.6278H42.4015L42.4485 11.2067C42.4837 10.9127 42.3624 8.44971 40.9064 6.78916C39.9983 5.75629 38.7575 5.2319 37.2232 5.2319C36.2877 5.2319 31.5986 5.53382 31.5986 11.4609C31.5986 15.4057 33.7944 17.7615 37.4698 17.7615V17.7655ZM40.4171 10.6505C40.3975 10.6744 40.3584 10.7101 40.2605 10.7101H33.7357C33.5831 10.7101 33.5831 10.6505 33.5831 10.6148C33.5831 9.5819 34.0136 8.03656 34.9608 7.06725C35.5636 6.45149 36.2995 6.14163 37.1449 6.14163C39.646 6.14163 40.2527 8.61259 40.3819 9.36341L40.3975 9.46272C40.468 9.88779 40.5697 10.4678 40.4171 10.6505Z" fill="#6C5D35"/>
<path d="M69.8349 12.1919L69.7449 12.2396C69.2869 12.4621 68.7194 12.6885 68.1244 12.9308C67.2203 13.2963 66.1909 13.7095 65.2945 14.2219C64.1595 14.8575 63.5332 15.9262 63.5332 17.2292C63.5332 19.3625 65.1536 20.5821 67.9914 20.5821C69.099 20.5821 70.1284 20.3834 70.5668 20.1888L70.6216 20.161C70.6725 20.1292 70.7665 20.0537 70.7665 19.9147C70.7665 19.7558 70.6373 19.6207 70.4494 19.6207L70.3868 19.6326C70.0071 19.7716 69.5726 19.8432 69.1304 19.8432C68.2614 19.8432 67.4042 19.5611 66.7897 19.0764C66.0891 18.5242 65.7173 17.7416 65.7173 16.8081C65.7173 14.7344 68.1518 13.8803 70.2968 13.1295C70.5238 13.05 70.743 12.9705 70.9543 12.8951C71.1109 12.8395 71.2792 12.7878 71.3966 12.7878C71.4788 12.7878 71.514 12.7878 71.518 12.9308C71.5375 14.9608 71.5258 18.6275 71.518 19.8312V20.2007C71.518 22.4492 73.7216 23.5178 74.7236 23.6648L75.3459 23.7522L74.8645 23.351C74.0895 22.6994 73.7725 22.0082 73.7725 20.9714V10.7618C73.7725 7.56781 72.3517 6.01849 69.4317 6.01849C66.9737 6.01849 65.6351 6.80904 64.9579 7.46849C64.3865 7.96507 64.0225 8.60863 63.9951 9.18466C63.9716 9.56206 64.0851 9.88781 64.3199 10.146C64.6722 10.5393 65.3807 10.591 65.7603 10.2612C65.9873 10.0507 66.0265 9.83219 66.0147 9.57C65.9717 9.02178 66.0069 8.42986 66.5392 7.81808C67.1459 7.25397 67.9248 6.89644 68.5863 6.89644H68.7194C70.7782 6.89644 71.518 8.38616 71.518 9.78849C71.518 11.3855 70.8839 11.6953 69.8349 12.1999V12.1919Z" fill="#6C5D35"/>
<path d="M48.6052 18.0992C49.4702 18.0992 50.711 17.9522 51.7326 17.257C52.7072 16.5975 53.2434 15.5726 53.2865 14.2895C53.3687 11.89 51.1494 11.163 49.3646 10.583C47.5367 9.98712 46.4016 9.37534 46.4016 8.17561C46.4016 6.86863 47.5014 6.17342 48.523 6.07808C50.1826 5.91918 51.6504 6.61835 52.0614 6.82493C52.3001 6.93219 52.5819 6.7415 52.5819 6.47931C52.5819 6.33233 52.5193 6.22109 52.3745 6.12575L52.1396 5.99068C51.3921 5.58151 49.9791 5.26767 48.9105 5.26767C46.4485 5.26767 44.8516 6.70972 44.8516 8.94233C44.8516 11.1749 47.067 11.9377 48.844 12.5097C50.621 13.0778 51.6856 14.0392 51.6856 15.0721C51.6856 17.8727 47.7637 17.3047 47.7167 17.3007C46.339 17.1855 45.2078 16.5141 44.8868 16.3036C44.6285 16.1605 44.3467 16.3393 44.3467 16.5936C44.3467 16.7088 44.4015 16.8081 44.4798 16.8558C45.3996 17.6105 47.0239 18.0952 48.6052 18.0952V18.0992Z" fill="#6C5D35"/>
<path d="M75.8438 25.9967C66.3169 22.1592 52.872 20.0378 37.9984 20.0378C31.454 20.0378 25.1523 20.447 19.2616 21.2455C19.242 21.2296 19.1951 21.1462 19.1833 20.6973V19.9345C19.199 19.4022 19.2029 18.8699 19.2029 18.3217C19.2029 11.9655 18.8741 8.74768 18.2283 8.74768C17.5825 8.74768 17.2498 11.9655 17.2498 18.3217C17.2498 19.1877 17.2576 20.0259 17.2772 20.8085L17.2693 20.9277C17.2419 21.321 17.195 21.5593 16.7762 21.6388C10.451 22.6438 4.86166 24.1137 0.153003 26.0047C0.0394947 26.0603 -0.0192168 26.1874 0.0199242 26.3066C0.0473229 26.4059 0.149089 26.4854 0.258684 26.4854L0.317395 26.4774C5.63274 25.0036 16.1773 23.0649 16.9406 23.057C17.3085 23.057 17.332 23.1722 17.332 23.3629C17.7234 29.004 17.9935 29.004 18.2322 29.004C18.5806 29.004 18.9133 28.5551 19.1246 23.1682C19.1677 22.8345 19.2616 22.8147 19.5395 22.7471L19.6295 22.7312C19.8879 22.6836 31.6145 21.611 38.0023 21.611C50.9932 21.611 64.3794 23.3391 75.7068 26.4774H75.7616C75.8673 26.4774 75.9573 26.4218 75.9964 26.3185L76.0043 26.2708C76.0199 26.1556 75.9612 26.0484 75.8477 26.0007L75.8438 25.9967Z" fill="#6C5D35"/>
<path d="M55.3097 7.80219H56.9106V16.2638C56.9106 19.1042 58.6602 19.7399 60.1828 19.9742L60.3824 20.006V19.9345C60.4724 19.8829 60.5272 19.7875 60.5272 19.6803C60.5272 19.5571 60.4568 19.4499 60.3354 19.3982C59.1964 18.9334 59.1064 18.0595 59.1064 17.1259V7.80219H61.7837C61.8385 7.80219 61.8933 7.79028 61.9637 7.76644C62.1672 7.6989 62.2808 7.54 62.2808 7.30959C62.2808 7.06726 62.1359 6.89247 61.8933 6.84082H61.8463C61.8032 6.82891 61.7954 6.82891 61.7954 6.82891H59.1025V2.59808L56.9028 3.63493L56.891 6.7574V6.83288H55.298C54.8087 6.83288 54.7344 7.13082 54.7344 7.31356C54.7344 7.42877 54.7774 7.80617 55.298 7.80617L55.3097 7.80219Z" fill="#6C5D35"/>
<path d="M22.7804 8.27492L24.5026 8.263C24.5026 8.263 24.5144 8.34245 24.5144 8.44574V19.1201L24.714 19.1003C25.8804 18.9771 26.4714 18.274 26.4714 17.0146V8.47752C26.4714 8.40999 26.4714 8.29876 26.5027 8.27492H29.1173C29.6223 8.27492 29.6731 7.93725 29.6731 7.79821C29.6731 7.65917 29.6262 7.34533 29.18 7.30958H26.4597C26.444 7.24204 26.444 7.09506 26.444 6.96793V6.26876C26.444 5.30739 26.5066 3.53958 26.9137 2.43917C27.1251 1.91081 27.5282 1.28711 28.2915 1.28711C28.9647 1.28711 29.5322 1.80355 29.8806 2.23259C30.0176 2.41136 30.1937 2.57821 30.5382 2.57821C31.0666 2.57821 31.5363 2.10547 31.5363 1.57314C31.5363 0.679304 30.546 0.00793457 29.2387 0.00793457C26.7102 0.00793457 25.5594 2.1293 25.1758 3.043C24.7179 4.203 24.4987 5.4941 24.4987 7.13081C24.4987 7.18643 24.4987 7.29766 24.487 7.31355H22.7491C22.4242 7.31355 22.2207 7.50026 22.2207 7.80218C22.2207 7.91341 22.2638 8.28287 22.7843 8.28287L22.7804 8.27492Z" fill="#6C5D35"/>
</g>
<defs>
<clipPath id="clip0_307_1765">
<rect width="76" height="29" fill="white"/>
</clipPath>
</defs>
</svg>
