<svg width="76" height="20" viewBox="0 0 76 20" fill="none" xmlns="http://www.w3.org/2000/svg">
<g id="_&#227;&#131;&#172;&#227;&#130;&#164;&#227;&#131;&#164;&#227;&#131;&#188;_1" clip-path="url(#clip0_957_116)">
<g id="Group">
<path id="Vector" d="M30.8463 0.779255L30.79 1.79787H30.7068C29.6424 0.906915 29.0526 0.656915 28.0713 0.656915C26.3339 0.68617 25.3526 1.93617 25.3526 4.13564V7.23404H28.6048V7.89096H25.3526V19.7234H23.1379V7.8883H21.2021V7.75L23.1379 7.10106V4.89628C23.1379 2.05851 24.9048 0 27.8755 0C28.9426 0 29.755 0.223404 30.8489 0.779255H30.8463Z" fill="black"/>
<path id="Vector_2" d="M52.095 16.3562C52.095 19.0264 49.5988 19.9998 46.9901 19.9998C45.3921 19.9998 44.1856 19.7498 42.8691 19.053L42.9254 17.9519H43.0381C44.3009 18.9253 45.4216 19.3429 47.0491 19.3429C48.7838 19.3429 50.1619 18.7471 50.1619 17.2737C50.1619 13.4626 43.207 14.686 43.207 10.4041C43.207 7.98384 45.4511 6.95459 47.9741 6.95459C49.4031 6.95459 50.3844 7.20459 51.8162 7.87214L51.7598 8.94395H51.6472C50.3844 7.97055 49.3468 7.58225 47.9446 7.58225C46.5423 7.58225 45.1401 8.29767 45.1401 9.57693C45.1401 13.0344 52.095 11.8482 52.095 16.3562Z" fill="black"/>
<path id="Vector_3" d="M62.0443 18.4706C61.5108 19.3057 60.5295 19.9998 58.9583 19.9998C56.8268 19.9998 55.5372 18.8589 55.5372 16.5211V7.88812H53.6309V7.74982L55.7329 7.01844C56.2664 5.95993 56.8536 4.59025 57.6124 3.28174H57.7518V7.23121H61.8459V7.88812H57.7518V16.5796C57.7518 18.2764 58.5937 19.1115 60.0227 19.1115C60.7252 19.1115 61.4545 18.8057 61.8727 18.3323L62.0416 18.4706H62.0443Z" fill="black"/>
<path id="Vector_4" d="M75.8341 18.3323C75.6035 18.7791 75.1826 19.1115 74.7027 19.1115C73.3943 19.1115 73.3701 17.5663 73.3701 16.5796V11.3509C73.3701 8.45725 71.799 6.95459 68.351 6.95459C66.922 6.95459 65.6591 7.31629 64.2569 8.06629L64.2864 9.1115H64.399C65.6886 8.0264 66.8657 7.60885 68.158 7.60885C70.1206 7.60885 71.1314 8.86151 71.1314 10.92V12.8163C66.1123 13.178 63.6992 14.7152 63.6992 17.1088C63.6992 18.8881 65.0157 20.0025 67.0909 20.0025C68.1312 20.0025 69.3323 19.5849 70.0321 18.8828L69.9249 18.6674C69.3457 19.0264 68.6459 19.1674 68.0159 19.1674C66.7825 19.1674 66.0238 18.3615 66.0238 16.9705C66.0238 14.912 67.6781 13.7791 71.1287 13.4732V17.4147C71.1287 17.6807 71.1823 18.0237 71.1823 18.0237C71.4209 19.3376 72.4478 20.0025 73.7107 20.0025C74.8421 20.0025 75.5687 19.3509 76.003 18.4732L75.8341 18.3349V18.3323Z" fill="black"/>
<path id="Vector_5" d="M6.8718 10.0611C9.50737 9.11433 10.9364 7.92816 10.9364 5.9521C10.9364 3.42018 8.636 1.94678 5.07543 1.94678H0V19.7207H4.99231C9.31165 19.7207 12.0598 17.8856 12.0598 14.8537C12.0598 12.2393 9.98462 10.3111 6.8718 10.0611ZM4.9655 19.1649C3.87159 19.1649 3.0592 19.0824 2.35673 18.859V2.50529H4.65717C7.09702 2.50529 8.44296 3.67284 8.44296 5.9255C8.44296 7.64891 7.60107 9.08773 6.08622 10.0345H3.56057V10.7473H5.07811C7.90941 10.7473 9.53687 12.2686 9.53687 15.1064C9.53687 17.9441 8.05151 19.1675 4.9655 19.1675V19.1649Z" fill="black"/>
<path id="Vector_6" d="M40.8022 17.5532C39.8209 18.2766 38.7001 18.7208 37.3542 18.7208C34.6623 18.7208 32.5603 17.1064 32.5603 12.5745C32.5603 12.5745 32.4638 10.1915 33.3834 8.80321C33.8794 8.05587 34.6167 7.55587 35.7267 7.55587C37.4186 7.55587 38.3704 8.72077 38.3918 11.9814C38.3918 11.9442 38.3918 12.0186 38.3918 11.9814H33.7641V12.6915H40.8049V12.0984C40.8049 9.23406 38.8422 6.95215 35.9546 6.95215C33.067 6.95215 30.1768 9.12236 30.1768 13.516C30.1768 17.4096 32.5335 19.9974 36.1772 19.9974C38.365 19.9974 39.9362 19.0798 40.888 17.633L40.8022 17.5506V17.5532Z" fill="black"/>
<path id="Vector_7" d="M15.3145 2.42037C15.3145 1.52941 15.9311 0.891113 16.8293 0.891113C17.7275 0.891113 18.3442 1.52941 18.3442 2.42037C18.3442 3.31133 17.7275 3.92303 16.8293 3.92303C15.9311 3.92303 15.3145 3.28473 15.3145 2.42037ZM15.7086 7.67303V19.7209H17.9527V6.92303L15.7086 7.67303Z" fill="black"/>
</g>
</g>
<defs>
<clipPath id="clip0_957_116">
<rect width="76" height="20" fill="white"/>
</clipPath>
</defs>
</svg>
