<svg width="229" height="22" viewBox="0 0 229 22" fill="none" xmlns="http://www.w3.org/2000/svg">
<g clip-path="url(#clip0_277_791)">
<path d="M221.184 17.2132C221.184 19.3447 222.939 21.0814 225.092 21.0814C227.244 21.0814 229 19.3488 229 17.2132C229 15.0777 227.249 13.3491 225.092 13.3491C222.935 13.3491 221.184 15.0817 221.184 17.2132ZM221.662 17.2132C221.662 15.3436 223.203 13.8165 225.096 13.8165C226.989 13.8165 228.526 15.3396 228.526 17.2132C228.526 19.0869 226.985 20.6059 225.096 20.6059C223.207 20.6059 221.662 19.0828 221.662 17.2132Z" fill="#E83534"/>
<path d="M223.941 15.4002H225.473C225.777 15.4002 226.288 15.4566 226.288 16.1496C226.288 16.8426 225.814 16.9273 225.364 16.9273H223.941V15.4002ZM223.941 17.447H225.428C226.162 17.447 226.239 17.8782 226.239 18.2489C226.239 18.4181 226.255 19.1031 226.345 19.3771H227.095V19.2763C226.908 19.1716 226.876 19.0789 226.868 18.8251L226.831 18.0111C226.807 17.3866 226.543 17.2738 226.284 17.165C226.576 16.9958 226.912 16.75 226.912 16.0892C226.912 15.1342 226.166 14.8804 225.42 14.8804H223.32V19.373H223.932V17.443L223.941 17.447Z" fill="#E83534"/>
<path d="M57.0902 5.39512L58.0388 2.00244H39.5643L34.1602 20.0779H53.0442L53.9928 16.6893H42.39L43.4562 12.4867H53.559L54.5077 9.15849H44.4211L45.6535 5.39512H57.0902Z" fill="#E83534"/>
<path d="M78.0216 2.00244L74.5067 14.1629L70.777 2.0105H60.5566L55.5781 20.0779H60.9133L64.6026 7.13175L68.608 20.0779H72.8202H76.3311H78.1473L83.3528 2.00244H78.0216Z" fill="#E83534"/>
<path d="M106.501 2.00244H85.0833L84.1914 5.31856H91.4847L87.2725 20.0779H94.205L98.4172 5.31856H105.601L106.501 2.00244Z" fill="#E83534"/>
<path d="M115.25 20.0779H122.288L121.096 2.00244H114.058V2.0105H111.046L98.2188 20.0779H103.822L106.384 16.6812H114.946L115.246 20.0779H115.25ZM108.382 13.6552L114.277 5.34273L114.828 13.6552H108.382Z" fill="#E83534"/>
<path d="M131.779 16.8303L135.801 2.00244H128.82L123.914 20.0779H126.01H130.899H142.19L142.956 16.8303H131.779Z" fill="#E83534"/>
<path d="M161.207 2.00261C158.779 1.90994 149.572 2.00261 149.572 2.00261L144.225 20.0781H151.449L153.391 13.5103H160.996C163.83 13.5103 168.74 12.0799 169.121 7.45829C169.49 3.03412 165.148 2.14767 161.203 2.00261H161.207ZM162.938 7.38576C162.569 10.2627 159.509 10.4077 159.509 10.4077H154.441L156.042 4.87148C156.042 4.87148 159.577 4.94804 160.628 4.94804C161.678 4.94804 163.311 4.50078 162.942 7.38173L162.938 7.38576Z" fill="#E83534"/>
<path d="M184.839 2.00261C182.411 1.90994 172.847 2.00261 172.847 2.00261L167.5 20.0781H174.72L176.638 13.5869L182.565 20.0781H189.794L183.797 13.5103H184.637C187.466 13.5103 192.899 12.0799 193.288 7.45829C193.653 3.03412 188.788 2.14767 184.839 2.00261ZM186.575 7.38576C186.202 10.2627 183.145 10.4077 183.145 10.4077H177.712L179.314 4.87148C179.314 4.87148 183.218 4.94804 184.264 4.94804C185.31 4.94804 186.943 4.50078 186.575 7.38173V7.38576Z" fill="#E83534"/>
<path d="M210.469 1.41016C201.668 1.41016 197.456 3.25558 195.518 9.9684C193.584 16.6812 193.803 20.4043 204.765 20.4043C217.211 20.4043 217.852 18.857 220.422 10.0047C222.993 1.16034 210.469 1.41419 210.469 1.41419V1.41016ZM212.821 10.7017C210.583 16.8625 209.687 17.4146 205.552 17.4146C200.553 17.4146 201.392 13.5102 202.438 10.7017C203.484 7.90136 203.983 4.04532 209.273 4.04532C210.765 4.04532 215.282 3.91638 212.821 10.7017Z" fill="#E83534"/>
<path d="M22.4354 13.6189L20.6029 19.7596H12.0812L13.9096 13.6189H2.69192L0 21.9958H13.5042C19.1637 21.9958 30.576 22.3464 33.6288 13.6189H22.4395H22.4354Z" fill="#E83534"/>
<path d="M15.3237 8.42917L17.3426 2.04273H25.8724L23.8495 8.42917H35.3469C37.232 -0.854344 25.3576 0.0200155 25.3576 0.0200155H6.95601L4.19922 8.42917H15.3237Z" fill="#E83534"/>
</g>
<defs>
<clipPath id="clip0_277_791">
<rect width="229" height="22" fill="white"/>
</clipPath>
</defs>
</svg>
