<svg width="165" height="23" viewBox="0 0 165 23" fill="none" xmlns="http://www.w3.org/2000/svg">
<g clip-path="url(#clip0_271_1122)">
<path d="M118.968 6.71167C111.784 6.71167 108.508 10.9037 108.508 14.8105C108.508 18.7173 111.254 22.905 118.968 22.905C126.682 22.905 129.432 18.726 129.432 14.8105C129.432 10.8951 126.16 6.71167 118.968 6.71167ZM118.968 20.4244C114.263 20.4244 111.775 18.5012 111.775 14.8624C111.775 11.2235 114.469 9.23985 118.968 9.23985C124.382 9.23985 126.314 12.144 126.314 14.8624C126.314 18.2938 123.497 20.4244 118.968 20.4244Z" fill="#231815"/>
<path d="M72.7207 7.00977V22.6067H75.7168V7.00977H75.4759H72.7207Z" fill="#231815"/>
<path d="M2.98296 6.53003H0V22.6067H14.5249V20.1865H2.98296V6.53003Z" fill="#231815"/>
<path d="M153.458 20.1909V6.53003H150.483V22.6067H165V20.1865H153.458V20.1909Z" fill="#231815"/>
<path d="M35.0241 7.00977V15.934C35.0241 19.0586 33.526 20.3335 29.8685 20.3335H29.6845C25.992 20.3335 24.4983 19.0586 24.4983 15.934V7.00977H21.5811V15.3593C21.5811 19.0111 22.5535 22.7537 29.7108 22.7537H29.8247C36.9733 22.7537 37.9545 19.2056 37.9545 15.3593V7.00977H35.0285H35.0241Z" fill="#231815"/>
<path d="M34.1832 1.67681L33.202 0L32.983 0.121007L24.7656 4.73657L25.7512 6.42202L34.1832 1.67681Z" fill="#231815"/>
<path d="M55.0726 6.5905C49.1286 6.5905 44.9893 9.97006 44.9893 14.7974C44.9893 19.6247 49.0541 22.9999 55.112 22.9999C58.003 22.9999 60.929 22.3517 62.541 21.3663L62.6592 21.2929V18.5443L62.3 18.7171C60.6443 19.5339 58.6513 20.2902 55.2653 20.2902C53.0927 20.2902 48.0467 19.7544 48.0467 14.7974C48.0467 9.57679 53.7191 9.16623 55.4537 9.16623C58.8966 9.16623 60.71 10.0306 62.3 10.7998L62.6548 10.977V8.22842L62.5015 8.15927C60.894 7.48941 58.371 6.58618 55.0639 6.58618L55.0726 6.5905Z" fill="#231815"/>
<path d="M94.2453 7.00977H85.4717V22.6067L94.2453 22.624C98.5993 22.624 103.286 20.1693 103.286 14.7931C103.286 9.41694 98.5993 7.00977 94.2453 7.00977ZM88.4021 9.39534H93.5576C97.8503 9.39534 100.417 11.3012 100.417 14.5036C100.417 18.2375 97.9116 20.286 93.3737 20.286H88.4021V9.39101V9.39534Z" fill="#231815"/>
<path d="M135.337 13.9634V15.3204H143.572V13.9634H143.327H135.337Z" fill="#231815"/>
</g>
<defs>
<clipPath id="clip0_271_1122">
<rect width="165" height="23" fill="white"/>
</clipPath>
</defs>
</svg>
