<svg width="128" height="18" viewBox="0 0 128 18" fill="none" xmlns="http://www.w3.org/2000/svg">
<g clip-path="url(#clip0_307_2000)">
<path d="M92.2903 5.25253C86.7175 5.25253 84.1758 8.53326 84.1758 11.5908C84.1758 14.6482 86.3063 17.9256 92.2903 17.9256C98.2742 17.9256 100.408 14.655 100.408 11.5908C100.408 8.52649 97.8698 5.25253 92.2903 5.25253ZM92.2903 15.9842C88.6408 15.9842 86.7107 14.4791 86.7107 11.6313C86.7107 8.78354 88.8005 7.23111 92.2903 7.23111C96.4902 7.23111 97.9887 9.50394 97.9887 11.6313C97.9887 14.3168 95.8038 15.9842 92.2903 15.9842Z" fill="#231815"/>
<path d="M56.4141 5.4859V17.6922H58.7383V5.4859H58.5514H56.4141Z" fill="#231815"/>
<path d="M2.31405 5.11047H0V17.6922H11.2678V15.7982H2.31405V5.11047Z" fill="#231815"/>
<path d="M119.047 15.8016V5.11047H116.739V17.6922H128V15.7982H119.047V15.8016Z" fill="#231815"/>
<path d="M27.1707 5.4859V12.4701C27.1707 14.9154 26.0086 15.9132 23.1712 15.9132H23.0285C20.164 15.9132 19.0053 14.9154 19.0053 12.4701V5.4859H16.7422V12.0203C16.7422 14.8782 17.4965 17.8072 23.0489 17.8072H23.1373C28.6828 17.8072 29.444 15.0304 29.444 12.0203V5.4859H27.1741H27.1707Z" fill="#231815"/>
<path d="M26.5186 1.31229L25.7575 0L25.5876 0.0947012L19.2129 3.70688L19.9774 5.02593L26.5186 1.31229Z" fill="#231815"/>
<path d="M42.9775 5.40338C38.3664 5.40338 35.1553 8.04825 35.1553 11.8262C35.1553 15.6041 38.3086 18.2455 43.0081 18.2455C45.2508 18.2455 47.5207 17.7382 48.7711 16.9671L48.8629 16.9096V14.7585L48.5842 14.8938C47.2998 15.533 45.7537 16.1249 43.127 16.1249C41.4416 16.1249 37.5271 15.7055 37.5271 11.8262C37.5271 7.74047 41.9275 7.41916 43.2731 7.41916C45.944 7.41916 47.3508 8.0956 48.5842 8.69763L48.8595 8.8363V6.68523L48.7406 6.63111C47.4935 6.10687 45.5362 5.39999 42.9707 5.39999L42.9775 5.40338Z" fill="#231815"/>
<path d="M73.1119 5.4859H66.3057V17.6922L73.1119 17.7057C76.4895 17.7057 80.1254 15.7847 80.1254 11.5772C80.1254 7.36978 76.4895 5.4859 73.1119 5.4859ZM68.5789 7.35287H72.5784C75.9085 7.35287 77.8997 8.84441 77.8997 11.3506C77.8997 14.2728 75.956 15.876 72.4357 15.876H68.5789V7.34949V7.35287Z" fill="#231815"/>
<path d="M104.988 10.9279V11.9899H111.377V10.9279H111.186H104.988Z" fill="#231815"/>
</g>
<defs>
<clipPath id="clip0_307_2000">
<rect width="128" height="18" fill="white"/>
</clipPath>
</defs>
</svg>
