<svg width="71" height="31" viewBox="0 0 71 31" fill="none" xmlns="http://www.w3.org/2000/svg">
<path d="M4.74969 5.54475C4.74969 2.92709 4.69379 2.40559 3.40813 2.26707L2.87606 2.21207C2.59656 2.07355 2.59656 1.27704 2.93195 1.24852C5.28176 1.11 7.46595 1 10.4327 1C12.7266 1 15.0226 1.22001 16.9542 1.91058C20.6207 3.20413 22.6372 6.45329 22.6372 9.89801C22.6372 13.5872 20.8464 16.5613 17.6271 18.1319C15.7244 19.069 13.4285 19.4275 10.5445 19.4275C9.22986 19.4275 7.83032 19.2625 6.82208 19.2625C5.47844 19.2625 4.04992 19.289 2.45578 19.344C2.23219 19.179 2.23219 18.5169 2.45578 18.3804L3.32324 18.2419C4.58407 18.0504 4.74969 17.8304 4.74969 15.2963V5.54475ZM8.75368 14.2757C8.75368 15.7913 8.80958 16.7813 9.31474 17.3599C9.81783 17.9119 10.6294 18.1584 11.6356 18.1584C16.478 18.1584 18.1301 13.9172 18.1301 10.171C18.1301 5.2127 15.4698 2.26707 10.4037 2.26707C9.64806 2.26707 9.11599 2.40355 8.94829 2.62356C8.7806 2.8456 8.75161 3.3671 8.75161 4.22064V14.2737L8.75368 14.2757Z" fill="#221E1F"/>
<path d="M28.6287 16.0643C28.6287 17.9934 28.7385 18.2399 29.6618 18.3234L30.1939 18.3784C30.4196 18.5434 30.4196 19.1769 30.167 19.3419C29.1856 19.2869 28.0967 19.2605 26.8089 19.2605C25.5212 19.2605 24.3722 19.2869 23.4488 19.3419C23.1962 19.1769 23.1962 18.5434 23.4219 18.3784L23.9519 18.3234C24.8752 18.2399 24.987 17.9934 24.987 16.0643V11.9066C24.987 10.8045 24.987 10.4745 24.455 10.1445L24.0637 9.89596C23.8691 9.73096 23.8691 9.23391 24.0637 9.0689C25.3783 8.71241 27.3658 7.96684 28.2064 7.47386C28.4279 7.47386 28.5977 7.55535 28.7095 7.72035C28.6536 8.54537 28.6267 9.75744 28.6267 10.998V16.0643H28.6287ZM28.8544 3.61765C28.8544 4.93769 27.8192 5.62826 26.753 5.62826C25.5212 5.62826 24.7966 4.80324 24.7966 3.67266C24.7966 2.46059 25.7738 1.66205 26.8938 1.66205C28.0138 1.66205 28.8544 2.51559 28.8544 3.61765Z" fill="#221E1F"/>
<path d="M40.4695 15.4878C40.3577 17.3599 41.1692 17.8569 41.7303 17.8569C42.0657 17.8569 42.3452 17.7734 42.7944 17.5249C43.047 17.5799 43.2147 17.9119 43.1298 18.1584C42.7944 18.5984 41.4798 19.6455 39.8856 19.6455C38.9064 19.6455 38.2894 19.3155 37.5338 18.6819C37.3392 18.5169 37.2253 18.4619 37.0866 18.4619C36.9479 18.4619 36.7781 18.5719 36.4986 18.7654C35.9976 19.124 35.157 19.6455 34.1219 19.6455C32.4988 19.6455 30.9854 18.6819 30.9854 16.7548C30.9854 15.3492 31.8549 14.4957 33.8983 13.8907C34.9624 13.5586 35.7471 13.3386 36.5276 13.1186C37.0327 12.9801 37.1715 12.7886 37.2004 12.5666C37.2274 12.2631 37.2543 11.9616 37.2543 11.6316C37.2543 10.5845 36.8361 9.26243 35.6332 9.26243C34.9624 9.26243 34.3724 9.64744 34.1778 10.831C34.1219 11.273 33.9542 11.5195 33.7016 11.713C33.2834 12.0166 32.1903 12.3445 31.6872 12.3445C31.2131 12.3445 31.0433 12.0431 31.0433 11.656C31.0433 10.941 31.7141 10.0589 32.3849 9.53743C33.3393 8.79186 35.1011 7.8548 37.0866 7.8548C39.4385 7.8548 40.809 9.01186 40.6703 11.8495L40.4736 15.4857L40.4695 15.4878ZM37.1114 14.7707C37.1383 14.3287 37.1114 14.2472 36.9147 14.2737C35.656 14.4387 34.5649 14.9052 34.5649 16.2008C34.5649 17.0828 35.2088 17.8549 35.9934 17.8549C36.8609 17.8549 37.0286 17.3578 37.0555 16.5063L37.1114 14.7707Z" fill="#221E1F"/>
<path d="M44.8374 11.9066C44.8374 10.8045 44.8374 10.4745 44.3053 10.1445L43.914 9.89597C43.7174 9.73096 43.7174 9.23391 43.914 9.06891C45.2287 8.71038 47.2431 7.96684 48.0567 7.47183C48.2803 7.47183 48.448 7.55332 48.5598 7.71832C48.5598 8.10537 48.475 8.76538 48.475 8.95891C48.475 9.12187 48.5329 9.17891 48.6157 9.17891C48.6985 9.17891 48.978 9.04243 49.1478 8.95891C49.7627 8.60242 51.0794 7.85684 52.3671 7.85684C54.6921 7.85684 55.866 9.42744 55.866 11.328V16.0643C55.866 17.9934 55.9778 18.2114 56.986 18.3234L57.4332 18.3784C57.6589 18.5434 57.6589 19.179 57.4042 19.342C56.5368 19.2869 55.3608 19.2605 54.0172 19.2605C52.8971 19.2605 51.8061 19.2869 50.9925 19.342C50.744 19.179 50.744 18.5434 50.9676 18.3784L51.4707 18.2949C52.1146 18.1849 52.2264 17.9914 52.2264 16.4778V11.8231C52.2264 10.7495 51.6653 9.86745 50.2658 9.86745C49.4832 9.86745 48.9242 10.226 48.6985 10.5275C48.5308 10.721 48.4729 11.051 48.4729 11.546V16.4758C48.4729 17.9914 48.5867 18.2378 49.2865 18.3214L49.7337 18.3764C49.9552 18.5414 49.9552 19.1769 49.7047 19.3399C48.8373 19.2849 47.9408 19.2584 46.5972 19.2584C45.4212 19.2584 44.2743 19.2849 43.293 19.3399C43.0424 19.1769 43.0424 18.5414 43.266 18.3764L43.7132 18.3214C44.7215 18.2114 44.8333 17.9914 44.8333 16.0622V11.9045L44.8374 11.9066Z" fill="#221E1F"/>
<path d="M61.8019 12.7316C61.158 12.7316 61.1 12.7866 61.1 13.2286C61.1 15.2943 62.4437 17.3049 65.0461 17.3049C65.8307 17.3049 66.8949 17.1399 67.6505 15.8728C67.959 15.8178 68.3793 16.0378 68.3793 16.5063C67.2303 18.8469 65.1599 19.6455 63.4809 19.6455C59.7026 19.6455 57.6592 17.0299 57.6592 14.0272C57.6592 10.558 60.2077 7.85684 63.7045 7.85684C66.6154 7.85684 68.1826 9.70245 68.1826 11.8231C68.1826 12.3466 68.0439 12.7316 67.1764 12.7316H61.8019ZM63.6486 11.5216C64.0399 11.5216 64.4871 11.4666 64.7956 11.2751C64.9343 11.1895 64.9922 10.9166 64.9922 10.6415C64.9922 9.733 64.4602 9.12595 63.5078 9.12595C62.334 9.12595 61.3257 10.228 61.3257 11.1101C61.3257 11.4951 61.717 11.5216 62.6135 11.5216H63.6486Z" fill="#221E1F"/>
<path d="M36.7553 6.80572L36.8422 6.77516C36.9271 6.74257 37.1818 4.97845 37.6931 4.6627C38.2045 4.34899 37.9685 3.92324 37.7884 4.02509C37.6103 4.13102 37.0493 5.1129 37.0493 5.1129L36.9188 4.96826L37.0989 4.48751L37.0679 4.33066C37.2107 4.19417 37.1631 4.03935 37.1631 4.03935L37.5047 3.64212C37.5047 3.64212 37.3163 3.31822 37.2314 3.46693C37.1445 3.61156 37.0679 3.46693 37.0679 3.46693C37.0679 3.46693 37.1072 3.35285 37.1072 3.24692C37.1072 3.14099 36.7573 2.95358 36.7573 2.95358C36.7573 2.95358 36.4075 3.14303 36.4075 3.24692C36.4075 3.35082 36.4447 3.46693 36.4447 3.46693C36.4447 3.46693 36.3681 3.61156 36.2812 3.46693C36.1984 3.31822 36.0079 3.64212 36.0079 3.64212L36.3474 4.03935C36.3474 4.03935 36.3039 4.19621 36.4447 4.33066L36.4137 4.48751L36.5938 4.96826L36.4634 5.1129C36.4634 5.1129 35.9044 4.13306 35.7243 4.02509C35.5441 3.92324 35.3061 4.34899 35.8174 4.6627C36.3288 4.97845 36.5855 6.74257 36.6704 6.77516L36.7553 6.80572Z" fill="#221E1F"/>
<path d="M35.4815 6.98089C35.4815 6.98089 35.3924 6.75681 35.1295 6.57958C34.8769 6.40643 34.4773 5.98883 33.4939 6.17624C32.5126 6.36772 33.2207 7.03793 33.2207 7.03793C33.2207 7.03793 33.4339 7.33738 33.9101 7.12756C34.3863 6.91366 34.5498 6.79755 34.9763 6.92792C35.4028 7.06237 35.3345 7.03793 35.4794 6.97885" fill="#221E1F"/>
<path d="M38.0303 6.98089C38.0303 6.98089 38.1172 6.75681 38.3802 6.57958C38.6369 6.40643 39.0364 5.98883 40.0178 6.17624C40.997 6.36772 40.2869 7.03793 40.2869 7.03793C40.2869 7.03793 40.0737 7.33738 39.5996 7.12756C39.1234 6.91366 38.9578 6.79755 38.5313 6.92792C38.1069 7.06237 38.1752 7.03793 38.0303 6.97885" fill="#221E1F"/>
<path d="M36.1687 6.75884C36.1687 6.75884 36.2639 6.5368 36.1935 6.40846C36.1252 6.28013 35.6822 5.60992 35.6822 5.60992C35.6822 5.60992 35.3157 5.13121 35.0279 5.04361C34.7381 4.95398 34.5828 4.96417 34.3882 5.02528C34.1936 5.08639 33.9452 5.23917 33.9617 5.4001C33.9804 5.56103 34.1418 5.85234 34.3137 5.87271C34.4814 5.89715 34.7422 5.89308 34.9348 5.9929C35.1294 6.09475 35.4627 6.32494 35.4627 6.32494C35.4627 6.32494 35.9906 6.88922 36.1687 6.76088" fill="#221E1F"/>
<path d="M37.3409 6.75884C37.3409 6.75884 37.2477 6.5368 37.3161 6.40846C37.3844 6.28013 37.8295 5.60992 37.8295 5.60992C37.8295 5.60992 38.1939 5.13121 38.4837 5.04361C38.7756 4.95398 38.9268 4.96417 39.1234 5.02528C39.3201 5.08639 39.5665 5.23917 39.5499 5.4001C39.5334 5.56103 39.3698 5.85234 39.2 5.87271C39.0282 5.89715 38.7673 5.89308 38.5789 5.9929C38.3823 6.09475 38.051 6.32494 38.051 6.32494C38.051 6.32494 37.5231 6.88922 37.343 6.76088" fill="#221E1F"/>
<path d="M3.43918 28.0689V29.4765C3.43918 29.5396 3.45367 29.5885 3.48473 29.6211C3.51578 29.6557 3.56754 29.6822 3.64207 29.7006V29.8004H2.28809V29.7006C2.36469 29.6802 2.41645 29.6517 2.4475 29.6191C2.47648 29.5865 2.49098 29.5376 2.49098 29.4744V25.8586C2.49098 25.7934 2.47648 25.7445 2.4475 25.7119C2.41852 25.6793 2.36469 25.6508 2.28809 25.6305V25.5306H4.99813C5.31489 25.5306 5.5654 25.551 5.74965 25.5938C5.93598 25.6366 6.09954 25.7079 6.24032 25.8097C6.38731 25.9157 6.50118 26.0562 6.58399 26.2294C6.6668 26.4086 6.70821 26.5981 6.70821 26.7997C6.70821 27.087 6.62954 27.3396 6.47219 27.5575C6.33555 27.7429 6.15751 27.8753 5.93391 27.9527C5.71032 28.0301 5.3977 28.0709 4.99813 28.0709H3.43918V28.0689ZM3.43918 27.364H4.88633C5.17411 27.364 5.377 27.3335 5.49294 27.2724C5.56747 27.2336 5.62751 27.1705 5.67305 27.0829C5.7186 26.9973 5.74137 26.9016 5.74137 26.7977C5.74137 26.6938 5.7186 26.6021 5.67305 26.5146C5.62751 26.429 5.56747 26.3658 5.49294 26.3251C5.37907 26.264 5.17618 26.2334 4.88633 26.2334H3.43918V27.362V27.364Z" fill="#221E1F"/>
<path d="M9.02668 28.3113V29.1648H11.2875C11.3537 29.1648 11.4034 29.1505 11.4386 29.122C11.4738 29.0935 11.5007 29.0405 11.5235 28.9652H11.6125V30H11.5235C11.5048 29.9267 11.4759 29.8757 11.4407 29.8452C11.4055 29.8146 11.3537 29.8004 11.2875 29.8004H7.97082V29.7128C8.04535 29.6944 8.09711 29.6659 8.12816 29.6313C8.15922 29.5967 8.17371 29.5457 8.17371 29.4806V26.6144C8.17371 26.5492 8.15922 26.5003 8.12816 26.4677C8.09918 26.4351 8.04535 26.4066 7.96875 26.3842V26.2966H11.186C11.2543 26.2966 11.3061 26.2823 11.3392 26.2518C11.3744 26.2232 11.4013 26.1703 11.4241 26.0949H11.509V27.1298H11.4241C11.4034 27.0544 11.3744 27.0014 11.3392 26.9729C11.304 26.9444 11.2523 26.9301 11.186 26.9301H9.02461V27.7001H10.3662C10.4324 27.7001 10.4821 27.6859 10.5173 27.6574C10.5525 27.6288 10.5815 27.5759 10.6043 27.5005H10.6891V28.5109H10.6043C10.5836 28.4376 10.5546 28.3846 10.5194 28.3561C10.4842 28.3255 10.4324 28.3113 10.3662 28.3113H9.02461H9.02668Z" fill="#221E1F"/>
<path d="M14.1175 28.3622V29.4805C14.1175 29.5457 14.132 29.5946 14.161 29.6293C14.19 29.6639 14.2438 29.6924 14.3204 29.7148V29.8024H13.0616V29.7148C13.1362 29.6965 13.1879 29.668 13.219 29.6333C13.25 29.5987 13.2645 29.5478 13.2645 29.4826V26.6164C13.2645 26.5512 13.25 26.5023 13.219 26.4697C13.19 26.4371 13.1362 26.4086 13.0596 26.3862V26.2986H15.3928C15.6951 26.2986 15.927 26.3129 16.0864 26.3434C16.2458 26.374 16.3866 26.429 16.5129 26.5084C16.7696 26.6734 16.8979 26.9423 16.8979 27.3151C16.8979 27.5983 16.8193 27.8203 16.6619 27.9792C16.5046 28.1381 16.2499 28.2542 15.898 28.3255L16.5729 29.2504C16.695 29.4215 16.7944 29.5376 16.8669 29.5987C16.9393 29.6598 17.0242 29.6985 17.1174 29.7148V29.8024H15.6206V29.7148C15.7303 29.6863 15.7862 29.6394 15.7862 29.5743C15.7862 29.5274 15.7531 29.4581 15.6847 29.3644L14.9725 28.3622H14.1196H14.1175ZM14.1175 27.7266H15.4011C15.5957 27.7266 15.7406 27.7062 15.8338 27.6635C15.9642 27.6064 16.0305 27.4964 16.0305 27.3294C16.0305 27.1807 15.9849 27.0788 15.8918 27.0197C15.7986 26.9607 15.635 26.9321 15.4011 26.9321H14.1175V27.7266Z" fill="#221E1F"/>
<path d="M19.304 28.3113V29.4785C19.304 29.5437 19.3185 29.5926 19.3475 29.6272C19.3765 29.6619 19.4303 29.6904 19.5069 29.7128V29.8004H18.2482V29.7128C18.3227 29.6944 18.3745 29.6659 18.4055 29.6313C18.4366 29.5967 18.4511 29.5457 18.4511 29.4806V26.6144C18.4511 26.5492 18.4366 26.5003 18.4055 26.4677C18.3765 26.4351 18.3227 26.4066 18.2461 26.3842V26.2966H21.4385C21.5068 26.2966 21.5586 26.2823 21.5917 26.2518C21.6269 26.2232 21.6538 26.1703 21.6766 26.0949H21.7615V27.1298H21.6766C21.6559 27.0564 21.6269 27.0035 21.5917 26.9749C21.5565 26.9444 21.5048 26.9301 21.4385 26.9301H19.302V27.7001H20.6435C20.7118 27.7001 20.7615 27.6859 20.7967 27.6574C20.8298 27.6288 20.8588 27.5759 20.8816 27.5005H20.9665V28.5109H20.8816C20.8609 28.4376 20.8319 28.3846 20.7967 28.3561C20.7615 28.3276 20.7098 28.3113 20.6435 28.3113H19.302H19.304Z" fill="#221E1F"/>
<path d="M23.9896 28.3113V29.1648H26.2504C26.3166 29.1648 26.3663 29.1505 26.4015 29.122C26.4367 29.0935 26.4636 29.0405 26.4864 28.9652H26.5754V30H26.4864C26.4677 29.9267 26.4388 29.8757 26.4036 29.8452C26.3684 29.8146 26.3166 29.8004 26.2504 29.8004H22.9337V29.7128C23.0082 29.6944 23.06 29.6659 23.0911 29.6313C23.1221 29.5967 23.1366 29.5457 23.1366 29.4806V26.6144C23.1366 26.5492 23.1221 26.5003 23.0911 26.4677C23.0621 26.4351 23.0082 26.4066 22.9316 26.3842V26.2966H26.1489C26.2172 26.2966 26.269 26.2823 26.3021 26.2518C26.3373 26.2232 26.3642 26.1703 26.387 26.0949H26.4719V27.1298H26.387C26.3663 27.0544 26.3373 27.0014 26.3021 26.9729C26.2669 26.9444 26.2152 26.9301 26.1489 26.9301H23.9875V27.7001H25.3291C25.3953 27.7001 25.445 27.6859 25.4802 27.6574C25.5154 27.6288 25.5444 27.5759 25.5672 27.5005H25.652V28.5109H25.5672C25.5465 28.4376 25.5175 28.3846 25.4823 28.3561C25.4471 28.3255 25.3953 28.3113 25.3291 28.3113H23.9875H23.9896Z" fill="#221E1F"/>
<path d="M31.3079 28.5435L31.8462 29.3155L31.7737 29.3685C31.722 29.3339 31.6826 29.3155 31.6536 29.3155C31.6184 29.3155 31.5336 29.3542 31.4031 29.4317C31.1133 29.5987 30.8566 29.7148 30.633 29.778C30.4094 29.8431 30.1547 29.8757 29.8628 29.8757C29.2811 29.8757 28.809 29.7393 28.4426 29.4663C28.2355 29.3094 28.0699 29.1139 27.9457 28.8776C27.8153 28.6229 27.749 28.3459 27.749 28.0485C27.749 27.637 27.8691 27.2744 28.1113 26.9607C28.4902 26.4677 29.072 26.2232 29.8566 26.2232C30.1464 26.2232 30.4052 26.2558 30.6309 26.321C30.8566 26.3862 31.1133 26.5023 31.4011 26.6673C31.5315 26.7447 31.6164 26.7834 31.6516 26.7834C31.6806 26.7834 31.722 26.7651 31.7716 26.7305L31.8441 26.7875L31.3058 27.5535L31.2354 27.5046C31.2375 27.4801 31.2396 27.4638 31.2416 27.4577C31.2437 27.4394 31.2458 27.4251 31.2458 27.417C31.2458 27.3151 31.1029 27.201 30.8172 27.0707C30.546 26.9484 30.2727 26.8873 29.9974 26.8873C29.6123 26.8873 29.2935 26.9871 29.043 27.1868C28.7573 27.4109 28.6144 27.7001 28.6144 28.0505C28.6144 28.4009 28.7573 28.6942 29.043 28.9183C29.2955 29.1159 29.6123 29.2157 29.9974 29.2157C30.2976 29.2157 30.5978 29.1424 30.898 28.9937C31.1319 28.8776 31.2479 28.7737 31.2479 28.6861C31.2479 28.6861 31.2437 28.6535 31.2375 28.5985L31.3079 28.5455V28.5435Z" fill="#221E1F"/>
<path d="M35.1415 26.9322V29.4785C35.1415 29.5437 35.156 29.5926 35.187 29.6272C35.216 29.6619 35.2698 29.6904 35.3464 29.7128V29.8004H34.0877V29.7128C34.1622 29.6945 34.214 29.666 34.245 29.6313C34.2761 29.5967 34.2906 29.5458 34.2906 29.4806V26.9301H33.2409C33.1726 26.9301 33.1209 26.9444 33.0877 26.975C33.0525 27.0055 33.0256 27.0564 33.0029 27.1298H32.918V26.0949H33.0029C33.0215 26.1683 33.0484 26.2192 33.0836 26.2498C33.1188 26.2803 33.1705 26.2946 33.2389 26.2946H36.1911C36.2595 26.2946 36.3112 26.2803 36.3464 26.2498C36.3816 26.2212 36.4085 26.1683 36.4313 26.0929H36.5162V27.1277H36.4313C36.4106 27.0544 36.3816 27.0014 36.3464 26.9729C36.3112 26.9424 36.2595 26.9281 36.1932 26.9281H35.1436L35.1415 26.9322Z" fill="#221E1F"/>
<path d="M43.1466 27.5637C43.6332 27.745 43.8775 28.0811 43.8775 28.572C43.8775 28.9611 43.7346 29.2667 43.451 29.4887C43.3061 29.5987 43.1404 29.6782 42.95 29.727C42.7595 29.7759 42.5256 29.8004 42.2461 29.8004H39.2793V29.7006C39.3559 29.6802 39.4077 29.6517 39.4387 29.6191C39.4677 29.5865 39.4822 29.5376 39.4822 29.4724V25.8586C39.4822 25.7934 39.4677 25.7445 39.4387 25.7119C39.4097 25.6793 39.3559 25.6508 39.2793 25.6305V25.5306H42.2171C42.4986 25.5306 42.7264 25.551 42.8982 25.5938C43.07 25.6366 43.2212 25.7058 43.3495 25.8056C43.6063 26.0032 43.7346 26.2905 43.7346 26.6633C43.7346 27.0809 43.5379 27.3803 43.1466 27.5637ZM40.4325 27.2296H42.0949C42.3475 27.2296 42.5235 27.1929 42.6229 27.1196C42.7347 27.036 42.7906 26.9077 42.7906 26.7325C42.7906 26.5573 42.7367 26.4249 42.6311 26.3496C42.5256 26.2742 42.3454 26.2355 42.0929 26.2355H40.4304V27.2296H40.4325ZM40.4325 29.0976H42.0411C42.3392 29.0976 42.5545 29.0568 42.687 28.9754C42.8382 28.8817 42.9127 28.7289 42.9127 28.515C42.9127 28.3011 42.8382 28.1503 42.687 28.0546C42.5566 27.9731 42.3434 27.9324 42.0411 27.9324H40.4325V29.0955V29.0976Z" fill="#221E1F"/>
<path d="M46.2532 28.3113V29.1648H48.514C48.5803 29.1648 48.63 29.1505 48.6652 29.122C48.7004 29.0935 48.7273 29.0405 48.75 28.9652H48.8391V30H48.75C48.7314 29.9267 48.7024 29.8757 48.6672 29.8452C48.632 29.8146 48.5803 29.8004 48.514 29.8004H45.1974V29.7128C45.2719 29.6944 45.3237 29.6659 45.3547 29.6313C45.3858 29.5967 45.4003 29.5457 45.4003 29.4806V26.6144C45.4003 26.5492 45.3858 26.5003 45.3547 26.4677C45.3257 26.4351 45.2719 26.4066 45.1953 26.3842V26.2966H48.4126C48.4809 26.2966 48.5327 26.2823 48.5658 26.2518C48.601 26.2232 48.6279 26.1703 48.6507 26.0949H48.7356V27.1298H48.6507C48.63 27.0544 48.601 27.0014 48.5658 26.9729C48.5306 26.9444 48.4788 26.9301 48.4126 26.9301H46.2512V27.7001H47.5927C47.659 27.7001 47.7087 27.6859 47.7439 27.6574C47.7791 27.6288 47.8081 27.5759 47.8308 27.5005H47.9157V28.5109H47.8308C47.8101 28.4376 47.7811 28.3846 47.7459 28.3561C47.7107 28.3255 47.659 28.3113 47.5927 28.3113H46.2512H46.2532Z" fill="#221E1F"/>
<path d="M52.7173 28.9244H51.0797L50.8954 29.3054C50.8499 29.397 50.8292 29.4683 50.8292 29.5213C50.8292 29.6211 50.8975 29.6843 51.0321 29.7128V29.8004H49.7236V29.7128C49.8044 29.7006 49.8644 29.6761 49.9038 29.6415C49.9431 29.6069 49.9886 29.5356 50.0425 29.4317L51.3426 26.8405C51.3923 26.7427 51.4151 26.6572 51.4151 26.5838C51.4151 26.4983 51.355 26.431 51.237 26.3842V26.2966H52.62V26.3842C52.5041 26.431 52.4461 26.5003 52.4461 26.5961C52.4461 26.6653 52.473 26.7488 52.5248 26.8487L53.8725 29.3604C53.9471 29.4969 54.005 29.5845 54.0465 29.6252C54.0899 29.6659 54.1541 29.6945 54.2411 29.7108V29.7984H52.7856V29.7108C52.9223 29.6884 52.9927 29.6252 52.9927 29.5213C52.9927 29.4561 52.9657 29.3767 52.914 29.2809L52.7173 28.9224V28.9244ZM52.4606 28.4335L51.8768 27.307L51.3219 28.4335H52.4606Z" fill="#221E1F"/>
<path d="M58.7701 26.6164V28.4722C58.7701 28.8959 58.6852 29.2055 58.5154 29.4052C58.2422 29.7209 57.7266 29.8778 56.971 29.8778C56.4638 29.8778 56.0559 29.8024 55.7433 29.6496C55.5176 29.5396 55.3644 29.3807 55.2816 29.177C55.205 28.9896 55.1677 28.7553 55.1677 28.4722V26.6164C55.1677 26.5512 55.1532 26.5023 55.1243 26.4697C55.0953 26.4371 55.0414 26.4086 54.9648 26.3862V26.2986H56.2236V26.3862C56.147 26.4066 56.0932 26.4351 56.0642 26.4697C56.0352 26.5044 56.0207 26.5533 56.0207 26.6184V28.3051C56.0207 28.5007 56.0373 28.6515 56.0725 28.7553C56.1077 28.8592 56.1677 28.9448 56.2547 29.012C56.4286 29.1485 56.6791 29.2157 57.0082 29.2157C57.3374 29.2157 57.5879 29.1485 57.7618 29.012C57.8467 28.9448 57.9068 28.8592 57.9399 28.7553C57.973 28.6515 57.9916 28.5007 57.9916 28.3051V26.6184C57.9916 26.5533 57.9772 26.5044 57.9482 26.4718C57.9192 26.4392 57.8654 26.4107 57.7867 26.3882V26.3007H58.973V26.3882C58.8964 26.4086 58.8446 26.4371 58.8136 26.4718C58.7846 26.5064 58.768 26.5553 58.768 26.6205L58.7701 26.6164Z" fill="#221E1F"/>
<path d="M62.3417 26.9322V29.4785C62.3417 29.5437 62.3562 29.5926 62.3872 29.6272C62.4162 29.6619 62.47 29.6904 62.5466 29.7128V29.8004H61.2879V29.7128C61.3624 29.6945 61.4142 29.666 61.4452 29.6313C61.4763 29.5967 61.4908 29.5458 61.4908 29.4806V26.9301H60.4411C60.3728 26.9301 60.3211 26.9444 60.2879 26.975C60.2527 27.0055 60.2258 27.0564 60.203 27.1298H60.1182V26.0949H60.203C60.2217 26.1683 60.2486 26.2192 60.2838 26.2498C60.319 26.2803 60.3707 26.2946 60.4391 26.2946H63.3913C63.4597 26.2946 63.5114 26.2803 63.5466 26.2498C63.5818 26.2212 63.6087 26.1683 63.6315 26.0929H63.7164V27.1277H63.6315C63.6108 27.0544 63.5818 27.0014 63.5466 26.9729C63.5114 26.9424 63.4597 26.9281 63.3934 26.9281H62.3438L62.3417 26.9322Z" fill="#221E1F"/>
<path d="M67.1198 28.2644V29.4826C67.1198 29.5478 67.1343 29.5967 67.1633 29.6313C67.1923 29.6659 67.2461 29.6945 67.3227 29.7169V29.8004H66.064V29.7169C66.1406 29.6965 66.1923 29.668 66.2234 29.6334C66.2524 29.5987 66.2669 29.5478 66.2669 29.4806V28.2624L65.211 26.8344C65.093 26.6735 64.9978 26.5635 64.9274 26.5044C64.857 26.4453 64.7721 26.4046 64.6748 26.3842V26.2966H66.2793V26.3842C66.1406 26.4188 66.0723 26.484 66.0723 26.5757C66.0723 26.6225 66.122 26.7142 66.2213 26.8507L66.7389 27.5555L67.2441 26.8507C67.3434 26.7122 67.3931 26.6185 67.3931 26.5716C67.3931 26.484 67.3248 26.4209 67.1902 26.3842L67.1861 26.2966H68.7119V26.3842C68.6146 26.4046 68.5297 26.4453 68.4593 26.5044C68.389 26.5635 68.2937 26.6735 68.1757 26.8344L67.1198 28.2624V28.2644Z" fill="#221E1F"/>
</svg>
