<svg width="29" height="30" viewBox="0 0 29 30" fill="none" xmlns="http://www.w3.org/2000/svg">
<g id="_&#235;&#160;&#136;&#236;&#157;&#180;&#236;&#150;&#180;_5" clip-path="url(#clip0_307_2170)">
<path id="Vector" d="M22.0233 29.5875C25.604 29.5875 28.5066 26.6848 28.5066 23.1042C28.5066 19.5235 25.604 16.6208 22.0233 16.6208C18.4427 16.6208 15.54 19.5235 15.54 23.1042C15.54 26.6848 18.4427 29.5875 22.0233 29.5875Z" fill="#F7D4C4"/>
<g id="Group">
<g id="Group_2">
<path id="Vector_2" d="M18.2412 28.497H4.73431C2.34728 28.497 0.412109 26.5619 0.412109 24.1748V6.89587C0.421933 4.50884 2.34728 2.57367 4.73431 2.57367H6.89541" stroke="black" stroke-width="0.85" stroke-miterlimit="10"/>
<path id="Vector_3" d="M19.8623 2.57367H22.0234C24.4104 2.57367 26.3456 4.50884 26.3456 6.89587V18.2416" stroke="black" stroke-width="0.85" stroke-miterlimit="10"/>
<path id="Vector_4" d="M9.05664 2.57367H17.701" stroke="black" stroke-width="0.85" stroke-miterlimit="10"/>
<path id="Vector_5" d="M0.421875 10.1376H26.3354" stroke="black" stroke-width="0.85" stroke-miterlimit="10"/>
<path id="Vector_6" d="M7.97606 5.81535C7.38667 5.81535 6.89551 5.33401 6.89551 4.7348V1.49315C6.89551 0.903757 7.37684 0.412598 7.97606 0.412598C8.56545 0.412598 9.05661 0.893934 9.05661 1.49315V4.7348C9.05661 5.32419 8.57527 5.81535 7.97606 5.81535Z" fill="#F7D4C4" stroke="black" stroke-width="0.85" stroke-miterlimit="10"/>
<path id="Vector_7" d="M18.7817 5.81535C18.1923 5.81535 17.7012 5.33401 17.7012 4.7348V1.49315C17.7012 0.903757 18.1825 0.412598 18.7817 0.412598C19.3711 0.412598 19.8623 0.893934 19.8623 1.49315V4.7348C19.8623 5.32419 19.3809 5.81535 18.7817 5.81535Z" fill="#F7D4C4" stroke="black" stroke-width="0.85" stroke-miterlimit="10"/>
<path id="Vector_8" d="M22.0233 29.5875C25.604 29.5875 28.5066 26.6848 28.5066 23.1042C28.5066 19.5235 25.604 16.6208 22.0233 16.6208C18.4427 16.6208 15.54 19.5235 15.54 23.1042C15.54 26.6848 18.4427 29.5875 22.0233 29.5875Z" stroke="black" stroke-width="0.85" stroke-miterlimit="10"/>
</g>
<path id="Vector_9" d="M22.4457 20.1375L23.3199 21.6012L24.9801 21.9843C25.3435 22.0727 25.4909 22.5147 25.2453 22.7996L24.1254 24.0865L24.2826 25.7859C24.3121 26.1591 23.9388 26.4342 23.5852 26.2868L22.0135 25.6189L20.4418 26.2868C20.0979 26.4342 19.7148 26.1591 19.7443 25.7859L19.9015 24.0865L18.7816 22.7996C18.5361 22.5147 18.6736 22.0727 19.0469 21.9843L20.707 21.6012L21.5812 20.1375C21.7777 19.8134 22.2394 19.8134 22.4359 20.1375H22.4457Z" fill="white" stroke="black" stroke-width="0.85" stroke-miterlimit="10"/>
</g>
</g>
<defs>
<clipPath id="clip0_307_2170">
<rect width="28.9194" height="30" fill="white"/>
</clipPath>
</defs>
</svg>
