<svg width="88" height="24" viewBox="0 0 88 24" fill="none" xmlns="http://www.w3.org/2000/svg">
<path d="M75.5409 17.3571C75.5409 15.9357 76.6604 13.8126 79.7399 13.8126C83.0626 13.8377 83.9424 16.1433 83.9424 17.3571C83.9424 18.7533 82.8265 20.8299 79.7399 20.8299C75.9486 20.8299 75.5409 18.4025 75.5409 17.3571ZM72.3076 17.3105C72.3076 17.8941 72.5151 23.0461 79.7399 23.0461C86.9647 23.0461 87.1757 17.8977 87.1757 17.3105C87.1757 17.0742 87.0935 11.6072 79.7399 11.6072C72.3863 11.6072 72.3076 17.0742 72.3076 17.3105Z" fill="#231815"/>
<path d="M30.4502 17.2819C30.4431 19.3548 31.4624 21.0948 33.1792 22.0006C36.3517 23.6762 40.2216 23.1033 42.7861 22.0078L42.9399 21.9254C43.1008 21.8288 43.294 22.0078 43.5229 22.2763L43.9592 22.0221L42.0064 18.714L41.5843 18.9574C41.7524 19.3047 41.7631 19.5696 41.6094 19.6591L41.4627 19.7522C38.7767 21.0447 36.6378 21.059 34.9175 19.8024C34.127 19.2224 33.637 18.2843 33.6084 17.2783C33.637 16.2687 34.127 15.3306 34.9175 14.747C36.6342 13.494 38.7731 13.5083 41.4627 14.7972L41.5557 14.8545C41.7131 14.9511 41.8061 15.1194 41.6094 15.5884L42.0171 15.8319L43.9521 12.538L43.5443 12.2982C43.3941 12.5559 43.1366 12.7278 42.922 12.6096L42.7861 12.5452C40.2216 11.4532 36.3517 10.8804 33.1792 12.5559C31.4624 13.4617 30.4431 15.2017 30.4502 17.2819Z" fill="#231815"/>
<path d="M10.6175 22.8062C10.8035 22.8062 10.9322 23.0496 10.943 23.268H11.4544V20.121H10.943C10.9179 20.2893 10.8035 20.59 10.6175 20.59C10.6175 20.59 5.24178 20.5936 4.82332 20.5936C4.82332 20.164 4.82332 12.5667 4.82332 12.5667C4.82332 12.3841 5.19887 12.2552 5.8212 12.2087V11.7397H0.90332V12.2087C1.52208 12.2516 1.90478 12.3805 1.90478 12.5667V21.9792C1.90478 22.1653 1.52208 22.2942 0.90332 22.3372V22.8134H10.6139L10.6175 22.8062Z" fill="#231815"/>
<path d="M26.6584 12.581C26.6584 12.3948 27.0375 12.2552 27.6599 12.2122V11.7432H22.7205V12.2122C23.3393 12.2552 23.7256 12.3948 23.7256 12.581V18.1662C23.7256 19.4551 23.511 20.8371 20.9251 20.8371C18.3391 20.8371 17.9564 19.5124 17.9564 18.0803V12.5738C17.9564 12.3877 18.3391 12.2516 18.9579 12.2087V11.7397H14.0186V12.2087C14.6409 12.2516 15.0272 12.3877 15.0272 12.5738V18.7963C15.0307 22.3264 17.191 23.0174 20.9215 23.0174C24.9953 23.0174 26.6548 21.8181 26.6548 18.8787V12.5774L26.6584 12.581Z" fill="#231815"/>
<path d="M48.3367 21.9648C48.3367 22.151 47.9505 22.2978 47.3281 22.3408V22.8098H52.4427V22.3408C51.824 22.2942 51.4484 22.151 51.4484 21.9648V12.5846C51.4484 12.3984 51.824 12.2516 52.4427 12.2087V11.7397H47.3281V12.2087C47.9505 12.2516 48.3367 12.3984 48.3367 12.5846V21.9648Z" fill="#231815"/>
<path d="M59.7211 13.9916V20.5399H63.0402C65.1719 20.5399 66.4452 18.9073 66.4452 17.3284C66.4452 15.7495 65.0467 13.9916 63.0331 13.9916H59.7211ZM69.4818 17.2819C69.4818 19.942 67.5504 22.8098 63.2977 22.8098H55.7832V22.33C56.402 22.2871 56.7882 22.1439 56.7882 21.9541V12.5846C56.7882 12.3984 56.4055 12.2516 55.7832 12.2087V11.7397H63.2047C67.5182 11.7361 69.4782 14.6074 69.4782 17.2819" fill="#231815"/>
<path d="M24.1891 0L17 9.28716H19.3284L26.5103 0H24.1891Z" fill="#231815"/>
</svg>
