<svg width="30" height="31" viewBox="0 0 30 31" fill="none" xmlns="http://www.w3.org/2000/svg">
<g id="_&#235;&#160;&#136;&#236;&#157;&#180;&#236;&#150;&#180;_5" clip-path="url(#clip0_307_2586)">
<path id="Vector" d="M4.92225 0.973816H25.1799C27.5595 0.973816 29.4917 2.904 29.4917 5.28117V19.0566H0.4375V5.46403C0.4375 2.98527 2.44089 0.973816 4.92225 0.973816Z" fill="#B2D7FF"/>
<g id="Group">
<path id="Vector_2" d="M0.4375 5.73831V25.1417C0.4375 27.8237 2.61377 29.9976 5.29852 29.9976H9.44767C10.3833 27.8541 12.5189 26.3608 15.0104 26.3608C17.5019 26.3608 19.6375 27.8541 20.5731 29.9976H24.7222C27.407 29.9976 29.5833 27.8237 29.5833 25.1417V5.73831C29.5833 3.05638 27.407 0.882385 24.7222 0.882385H5.28835C2.6036 0.892544 0.4375 3.05638 0.4375 5.73831Z" stroke="black" stroke-width="0.85" stroke-miterlimit="10"/>
<path id="Vector_3" d="M1.64746 19.0668H28.3525" stroke="black" stroke-width="0.85" stroke-miterlimit="10" stroke-linecap="round"/>
<g id="Group_2">
<path id="Vector_4" d="M19.7184 13.3372H16.5049V6.44952" stroke="black" stroke-width="0.85" stroke-miterlimit="10"/>
<g id="Group_3">
<path id="Vector_5" d="M10.3633 13.3371L12.2345 6.91675H12.7735L14.6446 13.3371" stroke="black" stroke-width="0.85" stroke-miterlimit="10"/>
<path id="Vector_6" d="M14.1061 11.1937H10.8926" stroke="black" stroke-width="0.85" stroke-miterlimit="10"/>
</g>
<g id="Group_4">
<path id="Vector_7" d="M24.1022 13.3371H20.8887V6.91675H24.1022" stroke="black" stroke-width="0.85" stroke-miterlimit="10"/>
<path id="Vector_8" d="M20.8887 10.127H24.1022" stroke="black" stroke-width="0.85" stroke-miterlimit="10"/>
</g>
<path id="Vector_9" d="M5.89844 13.3371H7.71878C8.49166 13.3371 9.112 12.7174 9.112 11.9454C9.112 11.478 8.8781 11.0412 8.49166 10.7872L6.51878 9.47675C6.13234 9.22278 5.89844 8.78595 5.89844 8.31864C5.89844 7.54657 6.51878 6.92688 7.29166 6.92688H9.112" stroke="black" stroke-width="0.85" stroke-miterlimit="10"/>
</g>
</g>
</g>
<defs>
<clipPath id="clip0_307_2586">
<rect width="30" height="29.9686" fill="white" transform="translate(0 0.455811)"/>
</clipPath>
</defs>
</svg>
