<svg width="30" height="30" viewBox="0 0 30 30" fill="none" xmlns="http://www.w3.org/2000/svg">
<g id="_&#235;&#160;&#136;&#236;&#157;&#180;&#236;&#150;&#180;_5" clip-path="url(#clip0_307_2622)">
<g id="Group">
<path id="Vector" d="M13.0913 11.9917C12.7386 13.2884 11.4108 14.0457 10.1141 13.7033C8.81743 13.3507 8.06017 12.0229 8.40249 10.7262C8.75519 9.42949 10.083 8.67223 11.3797 9.01455C12.6764 9.36725 13.4336 10.6951 13.0913 11.9917Z" fill="#B2D7FF" stroke="black" stroke-width="0.85" stroke-miterlimit="10"/>
<path id="Vector_2" d="M21.566 19.3257C21.1822 20.6121 19.8336 21.3486 18.5473 20.9648C17.261 20.5809 16.5245 19.2324 16.9083 17.9461C17.2922 16.6598 18.6407 15.9233 19.927 16.3071C21.2133 16.6909 21.9498 18.0394 21.566 19.3257Z" fill="#B2D7FF" stroke="black" stroke-width="0.85" stroke-miterlimit="10"/>
<path id="Vector_3" d="M9.84473 20.415L20.1559 9.93781" stroke="black" stroke-width="0.85" stroke-miterlimit="10" stroke-linecap="round"/>
</g>
<path id="Vector_4" d="M16.1101 1.23443L17.1267 0.715758C18.247 0.145219 19.6163 0.508289 20.3009 1.56638L20.9233 2.52074C21.3487 3.18464 22.0748 3.59958 22.8528 3.64107L23.9939 3.70331C25.2491 3.76555 26.2553 4.77177 26.3175 6.02696L26.3798 7.16804C26.4213 7.95642 26.8362 8.67219 27.5001 9.0975L28.4545 9.71991C29.5126 10.4046 29.8756 11.7738 29.3051 12.8942L28.7864 13.9108C28.4233 14.6162 28.4233 15.446 28.7864 16.1411L29.3051 17.1577C29.8756 18.278 29.5126 19.6473 28.4545 20.3319L27.5001 20.9543C26.8362 21.3797 26.4213 22.1058 26.3798 22.8838L26.3175 24.0249C26.2553 25.2801 25.2491 26.2863 23.9939 26.3485L22.8528 26.4108C22.0644 26.4523 21.3487 26.8672 20.9233 27.5311L20.3009 28.4855C19.6163 29.5436 18.247 29.9066 17.1267 29.3361L16.1101 28.8174C15.4047 28.4543 14.5748 28.4543 13.8798 28.8174L12.8632 29.3361C11.7428 29.9066 10.3735 29.5436 9.6889 28.4855L9.06649 27.5311C8.64118 26.8672 7.91504 26.4523 7.13703 26.4108L5.99596 26.3485C4.74077 26.2863 3.73454 25.2801 3.6723 24.0249L3.61006 22.8838C3.56857 22.0954 3.15363 21.3797 2.48973 20.9543L1.53537 20.3319C0.477283 19.6473 0.114213 18.278 0.684752 17.1577L1.20342 16.1411C1.56649 15.4357 1.56649 14.6058 1.20342 13.9108L0.684752 12.8942C0.114213 11.7738 0.477283 10.4046 1.53537 9.71991L2.48973 9.0975C3.15363 8.67219 3.56857 7.94605 3.61006 7.16804L3.6723 6.02696C3.73454 4.77177 4.74077 3.76555 5.99596 3.70331L7.13703 3.64107C7.92542 3.59958 8.64118 3.18464 9.06649 2.52074L9.6889 1.56638C10.3735 0.508289 11.7428 0.145219 12.8632 0.715758L13.8798 1.23443C14.5852 1.5975 15.415 1.5975 16.1101 1.23443Z" stroke="black" stroke-width="0.85" stroke-miterlimit="10"/>
</g>
<defs>
<clipPath id="clip0_307_2622">
<rect width="30" height="30" fill="white"/>
</clipPath>
</defs>
</svg>
