<svg width="83" height="37" viewBox="0 0 83 37" fill="none" xmlns="http://www.w3.org/2000/svg">
<g clip-path="url(#clip0_271_1565)">
<path d="M3.27218 5.79806C3.27218 2.45852 3.20234 1.79321 1.59583 1.61649L0.930986 1.54632C0.581746 1.3696 0.581746 0.353445 1.00083 0.317061C3.93703 0.140339 6.66627 0 10.3734 0C13.2397 0 16.1087 0.280677 18.5223 1.16169C23.1038 2.81197 25.6235 6.95715 25.6235 11.3518C25.6235 16.0584 23.3858 19.8527 19.3631 21.8564C16.9857 23.0519 14.1167 23.5093 10.5131 23.5093C8.87036 23.5093 7.12158 23.2988 5.86173 23.2988C4.18279 23.2988 2.39779 23.3326 0.405833 23.4028C0.126441 23.1922 0.126441 22.3476 0.405833 22.1735L1.48977 21.9968C3.06523 21.7525 3.27218 21.4718 3.27218 18.2388V5.79806ZM8.27536 16.9368C8.27536 18.8703 8.34521 20.1334 8.97643 20.8715C9.60506 21.5758 10.6191 21.8902 11.8764 21.8902C17.9273 21.8902 19.9917 16.4794 19.9917 11.7001C19.9917 5.37445 16.6675 1.61649 10.3372 1.61649C9.39293 1.61649 8.72808 1.79062 8.51854 2.07129C8.30899 2.35457 8.27278 3.01988 8.27278 4.1088V16.9342L8.27536 16.9368Z" fill="#221E1F"/>
<path d="M33.1101 19.2187C33.1101 21.6798 33.2473 21.9943 34.401 22.1008L35.0659 22.171C35.3479 22.3815 35.3479 23.1897 35.0323 23.4003C33.806 23.3301 32.4453 23.2963 30.8362 23.2963C29.2271 23.2963 27.7914 23.3301 26.6376 23.4003C26.322 23.1897 26.322 22.3815 26.6039 22.171L27.2662 22.1008C28.42 21.9943 28.5597 21.6798 28.5597 19.2187V13.9144C28.5597 12.5084 28.5597 12.0874 27.8948 11.6664L27.4059 11.3493C27.1627 11.1388 27.1627 10.5047 27.4059 10.2942C29.0486 9.83939 31.5321 8.8882 32.5824 8.25928C32.8592 8.25928 33.0713 8.36323 33.211 8.57374C33.1412 9.62628 33.1076 11.1726 33.1076 12.7553V19.2187H33.1101ZM33.3921 3.33963C33.3921 5.0237 32.0986 5.90471 30.7664 5.90471C29.2271 5.90471 28.3217 4.85217 28.3217 3.4098C28.3217 1.86348 29.5427 0.844727 30.9423 0.844727C32.3418 0.844727 33.3921 1.93365 33.3921 3.33963Z" fill="#221E1F"/>
<path d="M47.9046 18.4831C47.7649 20.8714 48.779 21.5055 49.48 21.5055C49.8991 21.5055 50.2484 21.399 50.8097 21.0819C51.1253 21.1521 51.3349 21.5757 51.2288 21.8902C50.8097 22.4515 49.167 23.7873 47.1751 23.7873C45.9514 23.7873 45.1805 23.3663 44.2363 22.5581C43.9931 22.3476 43.8508 22.2774 43.6775 22.2774C43.5042 22.2774 43.292 22.4177 42.9428 22.6646C42.3167 23.122 41.2664 23.7873 39.973 23.7873C37.9448 23.7873 36.0537 22.5581 36.0537 20.0995C36.0537 18.3063 37.1402 17.2174 39.6936 16.4455C41.0233 16.0219 42.0037 15.7413 42.979 15.4606C43.6102 15.2839 43.7835 15.0396 43.8198 14.7563C43.8534 14.3691 43.887 13.9844 43.887 13.5634C43.887 12.2276 43.3645 10.5409 41.8614 10.5409C41.0233 10.5409 40.286 11.0321 40.0428 12.5421C39.973 13.106 39.7634 13.4205 39.4478 13.6674C38.9252 14.0546 37.5593 14.473 36.9307 14.473C36.3383 14.473 36.1261 14.0884 36.1261 13.5946C36.1261 12.6824 36.9643 11.5571 37.8025 10.8918C38.9951 9.94059 41.1966 8.74512 43.6775 8.74512C46.6163 8.74512 48.3288 10.2213 48.1555 13.8415L47.9097 18.4805L47.9046 18.4831ZM43.7085 17.5683C43.7422 17.0043 43.7085 16.9003 43.4628 16.9341C41.8899 17.1446 40.5266 17.7398 40.5266 19.3927C40.5266 20.518 41.3311 21.5029 42.3116 21.5029C43.3955 21.5029 43.605 20.8688 43.6387 19.7825L43.7085 17.5683Z" fill="#221E1F"/>
<path d="M53.3634 13.9143C53.3634 12.5083 53.3634 12.0873 52.6985 11.6663L52.2096 11.3492C51.9638 11.1387 51.9638 10.5046 52.2096 10.2941C53.8523 9.8367 56.3694 8.88812 57.3861 8.25659C57.6655 8.25659 57.875 8.36055 58.0147 8.57105C58.0147 9.06484 57.9086 9.90687 57.9086 10.1538C57.9086 10.3617 57.9811 10.4344 58.0846 10.4344C58.188 10.4344 58.5373 10.2603 58.7494 10.1538C59.5177 9.69896 61.163 8.74778 62.7721 8.74778C65.6773 8.74778 67.1441 10.7515 67.1441 13.1762V19.2186C67.1441 21.6797 67.2838 21.9578 68.5436 22.1007L69.1024 22.1709C69.3844 22.3814 69.3844 23.1923 69.0662 23.4002C67.9823 23.33 66.5129 23.2962 64.8339 23.2962C63.4344 23.2962 62.0711 23.33 61.0544 23.4002C60.7439 23.1923 60.744 22.3814 61.0233 22.1709L61.652 22.0643C62.4565 21.924 62.5962 21.6771 62.5962 19.7462V13.8078C62.5962 12.4382 61.8951 11.3129 60.1464 11.3129C59.1685 11.3129 58.47 11.7703 58.188 12.1549C57.9785 12.4018 57.9061 12.8228 57.9061 13.4543V19.7436C57.9061 21.6771 58.0483 21.9916 58.9227 22.0981L59.4815 22.1683C59.7583 22.3788 59.7583 23.1897 59.4453 23.3976C58.3614 23.3274 57.2412 23.2936 55.5623 23.2936C54.0929 23.2936 52.6597 23.3274 51.4335 23.3976C51.1205 23.1897 51.1205 22.3788 51.3999 22.1683L51.9586 22.0981C53.2185 21.9578 53.3582 21.6771 53.3582 19.216V13.9117L53.3634 13.9143Z" fill="#221E1F"/>
<path d="M74.5613 14.9669C73.7567 14.9669 73.6843 15.037 73.6843 15.601C73.6843 18.2362 75.3632 20.8013 78.615 20.8013C79.5955 20.8013 80.9252 20.5908 81.8694 18.9743C82.2549 18.9042 82.78 19.1848 82.78 19.7826C81.3443 22.7687 78.7573 23.7874 76.6593 23.7874C71.9381 23.7874 69.3848 20.4505 69.3848 16.6198C69.3848 12.1939 72.5693 8.7478 76.9387 8.7478C80.576 8.7478 82.5343 11.1024 82.5343 13.8078C82.5343 14.4757 82.361 14.9669 81.277 14.9669H74.5613ZM76.8688 13.4232C77.3578 13.4232 77.9166 13.353 78.302 13.1087C78.4753 12.9995 78.5478 12.6513 78.5478 12.3004C78.5478 11.1414 77.8829 10.3669 76.6929 10.3669C75.2261 10.3669 73.9663 11.7729 73.9663 12.8982C73.9663 13.3894 74.4552 13.4232 75.5754 13.4232H76.8688Z" fill="#221E1F"/>
<path d="M43.2636 7.40664L43.3722 7.36765C43.4783 7.32607 43.7965 5.07546 44.4355 4.67263C45.0745 4.27241 44.7796 3.72925 44.5545 3.85919C44.332 3.99433 43.6309 5.24698 43.6309 5.24698L43.468 5.06246L43.693 4.44913L43.6542 4.24902C43.8327 4.07489 43.7732 3.87738 43.7732 3.87738L44.2001 3.3706C44.2001 3.3706 43.9647 2.95738 43.8586 3.1471C43.7499 3.33162 43.6542 3.1471 43.6542 3.1471C43.6542 3.1471 43.7034 3.00156 43.7034 2.86642C43.7034 2.73128 43.2662 2.49219 43.2662 2.49219C43.2662 2.49219 42.829 2.73388 42.829 2.86642C42.829 2.99897 42.8756 3.1471 42.8756 3.1471C42.8756 3.1471 42.7798 3.33162 42.6712 3.1471C42.5677 2.95738 42.3297 3.3706 42.3297 3.3706L42.754 3.87738C42.754 3.87738 42.6996 4.07749 42.8756 4.24902L42.8367 4.44913L43.0618 5.06246L42.8988 5.24698C42.8988 5.24698 42.2004 3.99693 41.9753 3.85919C41.7502 3.72925 41.4527 4.27241 42.0917 4.67263C42.7307 5.07546 43.0515 7.32607 43.1575 7.36765L43.2636 7.40664Z" fill="#221E1F"/>
<path d="M41.6727 7.63019C41.6727 7.63019 41.5615 7.34431 41.2329 7.11821C40.9173 6.89731 40.418 6.36454 39.1892 6.60364C37.963 6.84793 38.8477 7.70296 38.8477 7.70296C38.8477 7.70296 39.1142 8.08499 39.7092 7.81731C40.3042 7.54443 40.5086 7.39629 41.0415 7.56262C41.5744 7.73414 41.489 7.70296 41.6701 7.62759" fill="#221E1F"/>
<path d="M44.8574 7.63019C44.8574 7.63019 44.9661 7.34431 45.2946 7.11821C45.6154 6.89731 46.1147 6.36454 47.3409 6.60364C48.5645 6.84793 47.6772 7.70296 47.6772 7.70296C47.6772 7.70296 47.4108 8.08499 46.8183 7.81731C46.2233 7.54443 46.0164 7.39629 45.4835 7.56262C44.9531 7.73414 45.0385 7.70296 44.8574 7.62759" fill="#221E1F"/>
<path d="M42.5321 7.34706C42.5321 7.34706 42.6511 7.06378 42.5632 6.90005C42.4778 6.73633 41.9242 5.8813 41.9242 5.8813C41.9242 5.8813 41.4663 5.27057 41.1067 5.15882C40.7445 5.04447 40.5505 5.05746 40.3073 5.13543C40.0642 5.21339 39.7537 5.40831 39.7744 5.61362C39.7977 5.81893 39.9995 6.19057 40.2142 6.21655C40.4237 6.24774 40.7497 6.24254 40.9903 6.36989C41.2335 6.49983 41.65 6.7935 41.65 6.7935C41.65 6.7935 42.3096 7.51339 42.5321 7.34966" fill="#221E1F"/>
<path d="M43.9959 7.34706C43.9959 7.34706 43.8795 7.06378 43.9649 6.90005C44.0502 6.73633 44.6064 5.8813 44.6064 5.8813C44.6064 5.8813 45.0617 5.27057 45.4239 5.15882C45.7887 5.04447 45.9775 5.05746 46.2233 5.13543C46.4691 5.21339 46.7769 5.40831 46.7562 5.61362C46.7355 5.81893 46.5311 6.19057 46.319 6.21655C46.1043 6.24774 45.7783 6.24254 45.5429 6.36989C45.2972 6.49983 44.8832 6.7935 44.8832 6.7935C44.8832 6.7935 44.2236 7.51339 43.9985 7.34966" fill="#221E1F"/>
<path d="M1.43835 34.5336V36.3294C1.43835 36.41 1.45646 36.4723 1.49526 36.5139C1.53407 36.5581 1.59874 36.5919 1.69187 36.6153V36.7426H0V36.6153C0.0957175 36.5893 0.160391 36.5529 0.199196 36.5113C0.235413 36.4697 0.253522 36.4074 0.253522 36.3268V31.7138C0.253522 31.6307 0.235413 31.5683 0.199196 31.5267C0.162978 31.4851 0.0957175 31.4487 0 31.4228V31.2954H3.38633C3.78213 31.2954 4.09516 31.3214 4.3254 31.376C4.55822 31.4306 4.76259 31.5215 4.93851 31.6515C5.12218 31.7866 5.26446 31.9659 5.36794 32.1868C5.47142 32.4155 5.52316 32.6572 5.52316 32.9145C5.52316 33.2809 5.42485 33.6032 5.22824 33.8813C5.05751 34.1178 4.83503 34.2867 4.55564 34.3855C4.27624 34.4842 3.88561 34.5362 3.38633 34.5362H1.43835V34.5336ZM1.43835 33.6344H3.24663C3.60622 33.6344 3.85974 33.5954 4.00461 33.5174C4.09774 33.4681 4.17277 33.3875 4.22968 33.2757C4.28659 33.1666 4.31505 33.0444 4.31505 32.9119C4.31505 32.7794 4.28659 32.6624 4.22968 32.5507C4.17277 32.4415 4.09774 32.3609 4.00461 32.309C3.86233 32.231 3.60881 32.192 3.24663 32.192H1.43835V33.6318V33.6344Z" fill="#221E1F"/>
<path d="M8.42057 34.8429V35.9319H11.2455C11.3283 35.9319 11.3904 35.9137 11.4344 35.8773C11.4784 35.8409 11.512 35.7733 11.5404 35.6772H11.6517V36.9974H11.5404C11.5172 36.9038 11.4809 36.8389 11.437 36.7999C11.393 36.7609 11.3283 36.7427 11.2455 36.7427H7.10122V36.631C7.19435 36.6076 7.25902 36.5712 7.29783 36.527C7.33663 36.4828 7.35474 36.4179 7.35474 36.3347V32.6781C7.35474 32.5949 7.33663 32.5326 7.29783 32.491C7.26161 32.4494 7.19435 32.413 7.09863 32.3844V32.2727H11.1188C11.2041 32.2727 11.2688 32.2545 11.3102 32.2155C11.3542 32.1791 11.3878 32.1115 11.4163 32.0154H11.5223V33.3356H11.4163C11.3904 33.2394 11.3542 33.1719 11.3102 33.1355C11.2662 33.0991 11.2016 33.0809 11.1188 33.0809H8.41798V34.0633H10.0943C10.1771 34.0633 10.2392 34.0451 10.2832 34.0087C10.3272 33.9723 10.3634 33.9048 10.3918 33.8086H10.4979V35.0976H10.3918C10.366 35.0041 10.3297 34.9365 10.2858 34.9001C10.2418 34.8611 10.1771 34.8429 10.0943 34.8429H8.41798H8.42057Z" fill="#221E1F"/>
<path d="M14.7819 34.9078V36.3346C14.7819 36.4177 14.8 36.4801 14.8362 36.5243C14.8724 36.5685 14.9397 36.6049 15.0354 36.6334V36.7452H13.4625V36.6334C13.5557 36.6101 13.6204 36.5737 13.6592 36.5295C13.698 36.4853 13.7161 36.4203 13.7161 36.3372V32.6806C13.7161 32.5974 13.698 32.535 13.6592 32.4934C13.6229 32.4519 13.5557 32.4155 13.46 32.3869V32.2751H16.3755C16.7532 32.2751 17.0429 32.2933 17.2421 32.3323C17.4413 32.3713 17.6172 32.4415 17.775 32.5428C18.0958 32.7533 18.2562 33.0964 18.2562 33.572C18.2562 33.9332 18.1579 34.2165 17.9613 34.4192C17.7647 34.6219 17.4465 34.7701 17.0067 34.861L17.85 36.0409C18.0027 36.2592 18.1268 36.4073 18.2174 36.4853C18.3079 36.5633 18.414 36.6126 18.5304 36.6334V36.7452H16.66V36.6334C16.7971 36.5971 16.867 36.5373 16.867 36.4541C16.867 36.3943 16.8256 36.306 16.7402 36.1864L15.8503 34.9078H14.7845H14.7819ZM14.7819 34.0969H16.3858C16.629 34.0969 16.8101 34.071 16.9265 34.0164C17.0895 33.9436 17.1722 33.8033 17.1722 33.5902C17.1722 33.4005 17.1153 33.2705 16.9989 33.1951C16.8825 33.1198 16.6781 33.0834 16.3858 33.0834H14.7819V34.0969Z" fill="#221E1F"/>
<path d="M21.2624 34.8429V36.3321C21.2624 36.4153 21.2805 36.4776 21.3167 36.5218C21.3529 36.566 21.4202 36.6024 21.5159 36.631V36.7427H19.943V36.631C20.0361 36.6076 20.1008 36.5712 20.1396 36.527C20.1784 36.4828 20.1965 36.4179 20.1965 36.3347V32.6781C20.1965 32.5949 20.1784 32.5326 20.1396 32.491C20.1034 32.4494 20.0361 32.413 19.9404 32.3844V32.2727H23.9295C24.0149 32.2727 24.0796 32.2545 24.121 32.2155C24.1649 32.1791 24.1986 32.1115 24.227 32.0154H24.3331V33.3356H24.227C24.2012 33.242 24.1649 33.1745 24.121 33.1381C24.077 33.0991 24.0123 33.0809 23.9295 33.0809H21.2598V34.0633H22.9361C23.0215 34.0633 23.0836 34.0451 23.1276 34.0087C23.169 33.9723 23.2052 33.9048 23.2336 33.8086H23.3397V35.0976H23.2336C23.2078 35.0041 23.1715 34.9365 23.1276 34.9001C23.0836 34.8637 23.0189 34.8429 22.9361 34.8429H21.2598H21.2624Z" fill="#221E1F"/>
<path d="M27.1169 34.8429V35.9319H29.9418C30.0246 35.9319 30.0867 35.9137 30.1307 35.8773C30.1746 35.8409 30.2083 35.7733 30.2367 35.6772H30.348V36.9974H30.2367C30.2134 36.9038 30.1772 36.8389 30.1333 36.7999C30.0893 36.7609 30.0246 36.7427 29.9418 36.7427H25.7975V36.631C25.8906 36.6076 25.9553 36.5712 25.9941 36.527C26.0329 36.4828 26.051 36.4179 26.051 36.3347V32.6781C26.051 32.5949 26.0329 32.5326 25.9941 32.491C25.9579 32.4494 25.8906 32.413 25.7949 32.3844V32.2727H29.8151C29.9004 32.2727 29.9651 32.2545 30.0065 32.2155C30.0505 32.1791 30.0841 32.1115 30.1126 32.0154H30.2186V33.3356H30.1126C30.0867 33.2394 30.0505 33.1719 30.0065 33.1355C29.9625 33.0991 29.8978 33.0809 29.8151 33.0809H27.1143V34.0633H28.7906C28.8734 34.0633 28.9355 34.0451 28.9795 34.0087C29.0234 33.9723 29.0597 33.9048 29.0881 33.8086H29.1942V35.0976H29.0881C29.0623 35.0041 29.026 34.9365 28.9821 34.9001C28.9381 34.8611 28.8734 34.8429 28.7906 34.8429H27.1143H27.1169Z" fill="#221E1F"/>
<path d="M36.2614 35.1391L36.934 36.124L36.8435 36.1916C36.7788 36.1474 36.7297 36.124 36.6935 36.124C36.6495 36.124 36.5434 36.1734 36.3804 36.2722C36.0183 36.4853 35.6975 36.6334 35.4181 36.714C35.1387 36.7971 34.8205 36.8387 34.4557 36.8387C33.7288 36.8387 33.139 36.6646 32.6811 36.3163C32.4224 36.1162 32.2154 35.8667 32.0602 35.5653C31.8972 35.2404 31.8145 34.887 31.8145 34.5075C31.8145 33.9826 31.9645 33.52 32.2672 33.1197C32.7406 32.4908 33.4675 32.179 34.448 32.179C34.8102 32.179 35.1335 32.2205 35.4155 32.3037C35.6975 32.3869 36.0183 32.535 36.3778 32.7455C36.5408 32.8443 36.6469 32.8936 36.6909 32.8936C36.7271 32.8936 36.7788 32.8703 36.8409 32.8261L36.9315 32.8988L36.2588 33.876L36.1709 33.8136C36.1735 33.7825 36.1761 33.7617 36.1787 33.7539C36.1812 33.7305 36.1838 33.7123 36.1838 33.7019C36.1838 33.5719 36.0053 33.4264 35.6483 33.2601C35.3094 33.1042 34.968 33.0262 34.6239 33.0262C34.1427 33.0262 33.7443 33.1535 33.4313 33.4082C33.0743 33.6941 32.8958 34.0631 32.8958 34.5101C32.8958 34.9571 33.0743 35.3314 33.4313 35.6173C33.7469 35.8693 34.1427 35.9967 34.6239 35.9967C34.999 35.9967 35.3741 35.9031 35.7492 35.7134C36.0415 35.5653 36.1864 35.4327 36.1864 35.321C36.1864 35.321 36.1812 35.2794 36.1735 35.2092L36.2614 35.1417V35.1391Z" fill="#221E1F"/>
<path d="M41.0528 33.0834V36.332C41.0528 36.4152 41.0709 36.4775 41.1097 36.5217C41.1459 36.5659 41.2132 36.6023 41.3089 36.6309V36.7426H39.736V36.6309C39.8292 36.6075 39.8939 36.5711 39.9327 36.5269C39.9715 36.4827 39.9896 36.4178 39.9896 36.3346V33.0808H38.678C38.5926 33.0808 38.5279 33.099 38.4865 33.138C38.4426 33.177 38.4089 33.242 38.3805 33.3355H38.2744V32.0153H38.3805C38.4038 32.1089 38.4374 32.1738 38.4814 32.2128C38.5253 32.2518 38.59 32.27 38.6754 32.27H42.3644C42.4498 32.27 42.5144 32.2518 42.5584 32.2128C42.6024 32.1764 42.636 32.1089 42.6645 32.0127H42.7706V33.3329H42.6645C42.6386 33.2394 42.6024 33.1718 42.5584 33.1354C42.5144 33.0964 42.4498 33.0782 42.367 33.0782H41.0554L41.0528 33.0834Z" fill="#221E1F"/>
<path d="M51.0541 33.8891C51.6621 34.1204 51.9673 34.5492 51.9673 35.1755C51.9673 35.6719 51.7888 36.0617 51.4344 36.345C51.2533 36.4853 51.0464 36.5867 50.8084 36.6491C50.5704 36.7114 50.278 36.7426 49.9288 36.7426H46.2217V36.6153C46.3174 36.5893 46.3821 36.5529 46.4209 36.5113C46.4571 36.4697 46.4752 36.4074 46.4752 36.3242V31.7138C46.4752 31.6307 46.4571 31.5683 46.4209 31.5267C46.3847 31.4851 46.3174 31.4487 46.2217 31.4228V31.2954H49.8926C50.2444 31.2954 50.529 31.3214 50.7437 31.376C50.9584 31.4306 51.1473 31.5189 51.3076 31.6463C51.6284 31.8983 51.7888 32.2648 51.7888 32.7404C51.7888 33.2731 51.5431 33.6552 51.0541 33.8891ZM47.6626 33.4629H49.7399C50.0556 33.4629 50.2754 33.4161 50.3996 33.3225C50.5393 33.216 50.6092 33.0522 50.6092 32.8287C50.6092 32.6052 50.5419 32.4363 50.41 32.3402C50.278 32.244 50.053 32.1946 49.7374 32.1946H47.66V33.4629H47.6626ZM47.6626 35.846H49.6727C50.0452 35.846 50.3143 35.794 50.4798 35.6901C50.6687 35.5705 50.7618 35.3756 50.7618 35.1027C50.7618 34.8299 50.6687 34.6375 50.4798 34.5154C50.3168 34.4114 50.0504 34.3595 49.6727 34.3595H47.6626V35.8434V35.846Z" fill="#221E1F"/>
<path d="M54.9362 34.8429V35.9319H57.7612C57.8439 35.9319 57.906 35.9137 57.95 35.8773C57.994 35.8409 58.0276 35.7733 58.0561 35.6772H58.1673V36.9974H58.0561C58.0328 36.9038 57.9966 36.8389 57.9526 36.7999C57.9086 36.7609 57.8439 36.7427 57.7612 36.7427H53.6168V36.631C53.71 36.6076 53.7747 36.5712 53.8135 36.527C53.8523 36.4828 53.8704 36.4179 53.8704 36.3347V32.6781C53.8704 32.5949 53.8523 32.5326 53.8135 32.491C53.7772 32.4494 53.71 32.413 53.6143 32.3844V32.2727H57.6344C57.7198 32.2727 57.7844 32.2545 57.8258 32.2155C57.8698 32.1791 57.9034 32.1115 57.9319 32.0154H58.038V33.3356H57.9319C57.906 33.2394 57.8698 33.1719 57.8258 33.1355C57.7818 33.0991 57.7172 33.0809 57.6344 33.0809H54.9336V34.0633H56.61C56.6927 34.0633 56.7548 34.0451 56.7988 34.0087C56.8428 33.9723 56.879 33.9048 56.9075 33.8086H57.0135V35.0976H56.9075C56.8816 35.0041 56.8454 34.9365 56.8014 34.9001C56.7574 34.8611 56.6927 34.8429 56.61 34.8429H54.9336H54.9362Z" fill="#221E1F"/>
<path d="M63.0132 35.6252H60.9669L60.7367 36.1112C60.6798 36.2282 60.6539 36.3191 60.6539 36.3867C60.6539 36.514 60.7393 36.5946 60.9074 36.631V36.7427H59.2725V36.631C59.3734 36.6154 59.4484 36.5842 59.4975 36.54C59.5467 36.4959 59.6036 36.4049 59.6709 36.2724L61.2955 32.9666C61.3576 32.8419 61.386 32.7327 61.386 32.6391C61.386 32.53 61.311 32.4442 61.1635 32.3845V32.2727H62.8916V32.3845C62.7467 32.4442 62.6743 32.5326 62.6743 32.6547C62.6743 32.7431 62.7079 32.8497 62.7726 32.977L64.4567 36.1814C64.5499 36.3555 64.6223 36.4673 64.674 36.5192C64.7284 36.5712 64.8086 36.6076 64.9172 36.6284V36.7401H63.0986V36.6284C63.2693 36.5998 63.3573 36.5192 63.3573 36.3867C63.3573 36.3035 63.3236 36.2022 63.259 36.08L63.0132 35.6226V35.6252ZM62.6924 34.9989L61.9629 33.5617L61.2696 34.9989H62.6924Z" fill="#221E1F"/>
<path d="M70.5771 32.6806V35.0481C70.5771 35.5887 70.471 35.9837 70.2589 36.2384C69.9174 36.6412 69.2733 36.8413 68.329 36.8413C67.6952 36.8413 67.1856 36.7452 66.795 36.5503C66.513 36.4099 66.3215 36.2072 66.2181 35.9473C66.1224 35.7082 66.0758 35.4094 66.0758 35.0481V32.6806C66.0758 32.5974 66.0577 32.535 66.0215 32.4934C65.9852 32.4519 65.918 32.4155 65.8223 32.3869V32.2751H67.3951V32.3869C67.2994 32.4129 67.2322 32.4493 67.1959 32.4934C67.1597 32.5376 67.1416 32.6 67.1416 32.6832V34.835C67.1416 35.0845 67.1623 35.2768 67.2063 35.4094C67.2503 35.5419 67.3253 35.6511 67.4339 35.7368C67.6512 35.911 67.9643 35.9967 68.3756 35.9967C68.7869 35.9967 69.0999 35.911 69.3173 35.7368C69.4233 35.6511 69.4983 35.5419 69.5397 35.4094C69.5811 35.2768 69.6044 35.0845 69.6044 34.835V32.6832C69.6044 32.6 69.5863 32.5376 69.5501 32.496C69.5139 32.4545 69.4466 32.4181 69.3483 32.3895V32.2777H70.8306V32.3895C70.7349 32.4155 70.6702 32.4519 70.6314 32.496C70.5952 32.5402 70.5745 32.6026 70.5745 32.6858L70.5771 32.6806Z" fill="#221E1F"/>
<path d="M75.0401 33.0834V36.332C75.0401 36.4152 75.0582 36.4775 75.097 36.5217C75.1332 36.5659 75.2005 36.6023 75.2962 36.6309V36.7426H73.7234V36.6309C73.8165 36.6075 73.8812 36.5711 73.92 36.5269C73.9588 36.4827 73.9769 36.4178 73.9769 36.3346V33.0808H72.6653C72.5799 33.0808 72.5152 33.099 72.4739 33.138C72.4299 33.177 72.3962 33.242 72.3678 33.3355H72.2617V32.0153H72.3678C72.3911 32.1089 72.4247 32.1738 72.4687 32.2128C72.5127 32.2518 72.5773 32.27 72.6627 32.27H76.3517C76.4371 32.27 76.5018 32.2518 76.5457 32.2128C76.5897 32.1764 76.6233 32.1089 76.6518 32.0127H76.7579V33.3329H76.6518C76.6259 33.2394 76.5897 33.1718 76.5457 33.1354C76.5018 33.0964 76.4371 33.0782 76.3543 33.0782H75.0427L75.0401 33.0834Z" fill="#221E1F"/>
<path d="M81.0103 34.7832V36.3373C81.0103 36.4205 81.0284 36.4829 81.0646 36.527C81.1008 36.5712 81.1681 36.6076 81.2638 36.6362V36.7427H79.6909V36.6362C79.7866 36.6102 79.8513 36.5738 79.8901 36.5296C79.9263 36.4855 79.9445 36.4205 79.9445 36.3347V34.7806L78.6251 32.9588C78.4776 32.7535 78.3586 32.6132 78.2707 32.5378C78.1827 32.4624 78.0767 32.4104 77.9551 32.3845V32.2727H79.96V32.3845C79.7866 32.4286 79.7013 32.5118 79.7013 32.6287C79.7013 32.6885 79.7634 32.8055 79.8875 32.9796L80.5343 33.8788L81.1655 32.9796C81.2897 32.8029 81.3518 32.6833 81.3518 32.6236C81.3518 32.5118 81.2664 32.4312 81.0982 32.3845L81.0931 32.2727H82.9996V32.3845C82.8781 32.4104 82.772 32.4624 82.684 32.5378C82.5961 32.6132 82.4771 32.7535 82.3296 32.9588L81.0103 34.7806V34.7832Z" fill="#221E1F"/>
</g>
<defs>
<clipPath id="clip0_271_1565">
<rect width="83" height="37" fill="white"/>
</clipPath>
</defs>
</svg>
