<svg width="83" height="37" viewBox="0 0 83 37" fill="none" xmlns="http://www.w3.org/2000/svg">
<path d="M3.27218 9.79806C3.27218 6.45852 3.20234 5.79321 1.59583 5.61649L0.930986 5.54632C0.581746 5.3696 0.581746 4.35345 1.00083 4.31706C3.93703 4.14034 6.66627 4 10.3734 4C13.2397 4 16.1087 4.28068 18.5223 5.16169C23.1038 6.81197 25.6235 10.9572 25.6235 15.3518C25.6235 20.0584 23.3858 23.8527 19.3631 25.8564C16.9857 27.0519 14.1167 27.5093 10.5131 27.5093C8.87036 27.5093 7.12158 27.2988 5.86173 27.2988C4.18279 27.2988 2.39779 27.3326 0.405833 27.4028C0.126441 27.1922 0.126441 26.3476 0.405833 26.1735L1.48977 25.9968C3.06523 25.7525 3.27218 25.4718 3.27218 22.2388V9.79806ZM8.27536 20.9368C8.27536 22.8703 8.34521 24.1334 8.97643 24.8715C9.60506 25.5758 10.6191 25.8902 11.8764 25.8902C17.9273 25.8902 19.9917 20.4794 19.9917 15.7001C19.9917 9.37445 16.6675 5.61649 10.3372 5.61649C9.39293 5.61649 8.72808 5.79062 8.51854 6.07129C8.30899 6.35457 8.27278 7.01988 8.27278 8.1088V20.9342L8.27536 20.9368Z" fill="#221E1F"/>
<path d="M33.1101 23.2187C33.1101 25.6798 33.2473 25.9943 34.401 26.1008L35.0659 26.171C35.3479 26.3815 35.3479 27.1897 35.0323 27.4003C33.806 27.3301 32.4453 27.2963 30.8362 27.2963C29.2271 27.2963 27.7914 27.3301 26.6376 27.4003C26.322 27.1897 26.322 26.3815 26.6039 26.171L27.2662 26.1008C28.42 25.9943 28.5597 25.6798 28.5597 23.2187V17.9144C28.5597 16.5084 28.5597 16.0874 27.8948 15.6664L27.4059 15.3493C27.1627 15.1388 27.1627 14.5047 27.4059 14.2942C29.0486 13.8394 31.5321 12.8882 32.5824 12.2593C32.8592 12.2593 33.0713 12.3632 33.211 12.5737C33.1412 13.6263 33.1076 15.1726 33.1076 16.7553V23.2187H33.1101ZM33.3921 7.33963C33.3921 9.0237 32.0986 9.90471 30.7664 9.90471C29.2271 9.90471 28.3217 8.85217 28.3217 7.4098C28.3217 5.86348 29.5427 4.84473 30.9423 4.84473C32.3418 4.84473 33.3921 5.93365 33.3921 7.33963Z" fill="#221E1F"/>
<path d="M47.9046 22.4831C47.7649 24.8714 48.779 25.5055 49.48 25.5055C49.8991 25.5055 50.2484 25.399 50.8097 25.0819C51.1253 25.1521 51.3349 25.5757 51.2288 25.8902C50.8097 26.4515 49.167 27.7873 47.1751 27.7873C45.9514 27.7873 45.1805 27.3663 44.2363 26.5581C43.9931 26.3476 43.8508 26.2774 43.6775 26.2774C43.5042 26.2774 43.292 26.4177 42.9428 26.6646C42.3167 27.122 41.2664 27.7873 39.973 27.7873C37.9448 27.7873 36.0537 26.5581 36.0537 24.0995C36.0537 22.3063 37.1402 21.2174 39.6936 20.4455C41.0233 20.0219 42.0037 19.7413 42.979 19.4606C43.6102 19.2839 43.7835 19.0396 43.8198 18.7563C43.8534 18.3691 43.887 17.9844 43.887 17.5634C43.887 16.2276 43.3645 14.5409 41.8614 14.5409C41.0233 14.5409 40.286 15.0321 40.0428 16.5421C39.973 17.106 39.7634 17.4205 39.4478 17.6674C38.9252 18.0546 37.5593 18.473 36.9307 18.473C36.3383 18.473 36.1261 18.0884 36.1261 17.5946C36.1261 16.6824 36.9643 15.5571 37.8025 14.8918C38.9951 13.9406 41.1966 12.7451 43.6775 12.7451C46.6163 12.7451 48.3288 14.2213 48.1555 17.8415L47.9097 22.4805L47.9046 22.4831ZM43.7085 21.5683C43.7422 21.0043 43.7085 20.9003 43.4628 20.9341C41.8899 21.1446 40.5266 21.7398 40.5266 23.3927C40.5266 24.518 41.3311 25.5029 42.3116 25.5029C43.3955 25.5029 43.605 24.8688 43.6387 23.7825L43.7085 21.5683Z" fill="#221E1F"/>
<path d="M53.3634 17.9143C53.3634 16.5083 53.3634 16.0873 52.6985 15.6663L52.2096 15.3492C51.9638 15.1387 51.9638 14.5046 52.2096 14.2941C53.8523 13.8367 56.3694 12.8881 57.3861 12.2566C57.6655 12.2566 57.875 12.3605 58.0147 12.5711C58.0147 13.0648 57.9086 13.9069 57.9086 14.1538C57.9086 14.3617 57.9811 14.4344 58.0846 14.4344C58.188 14.4344 58.5373 14.2603 58.7494 14.1538C59.5177 13.699 61.163 12.7478 62.7721 12.7478C65.6773 12.7478 67.1441 14.7515 67.1441 17.1762V23.2186C67.1441 25.6797 67.2838 25.9578 68.5436 26.1007L69.1024 26.1709C69.3844 26.3814 69.3844 27.1923 69.0662 27.4002C67.9823 27.33 66.5129 27.2962 64.8339 27.2962C63.4344 27.2962 62.0711 27.33 61.0544 27.4002C60.7439 27.1923 60.744 26.3814 61.0233 26.1709L61.652 26.0643C62.4565 25.924 62.5962 25.6771 62.5962 23.7462V17.8078C62.5962 16.4382 61.8951 15.3129 60.1464 15.3129C59.1685 15.3129 58.47 15.7703 58.188 16.1549C57.9785 16.4018 57.9061 16.8228 57.9061 17.4543V23.7436C57.9061 25.6771 58.0483 25.9916 58.9227 26.0981L59.4815 26.1683C59.7583 26.3788 59.7583 27.1897 59.4453 27.3976C58.3614 27.3274 57.2412 27.2936 55.5623 27.2936C54.0929 27.2936 52.6597 27.3274 51.4335 27.3976C51.1205 27.1897 51.1205 26.3788 51.3999 26.1683L51.9586 26.0981C53.2185 25.9578 53.3582 25.6771 53.3582 23.216V17.9117L53.3634 17.9143Z" fill="#221E1F"/>
<path d="M74.5613 18.9669C73.7567 18.9669 73.6843 19.037 73.6843 19.601C73.6843 22.2362 75.3632 24.8013 78.615 24.8013C79.5955 24.8013 80.9252 24.5908 81.8694 22.9743C82.2549 22.9042 82.78 23.1848 82.78 23.7826C81.3443 26.7687 78.7573 27.7874 76.6593 27.7874C71.9381 27.7874 69.3848 24.4505 69.3848 20.6198C69.3848 16.1939 72.5693 12.7478 76.9387 12.7478C80.576 12.7478 82.5343 15.1024 82.5343 17.8078C82.5343 18.4757 82.361 18.9669 81.277 18.9669H74.5613ZM76.8688 17.4232C77.3578 17.4232 77.9166 17.353 78.302 17.1087C78.4753 16.9995 78.5478 16.6513 78.5478 16.3004C78.5478 15.1414 77.8829 14.3669 76.6929 14.3669C75.2261 14.3669 73.9663 15.7729 73.9663 16.8982C73.9663 17.3894 74.4552 17.4232 75.5754 17.4232H76.8688Z" fill="#221E1F"/>
<path d="M43.2636 11.4066L43.3722 11.3677C43.4783 11.3261 43.7965 9.07546 44.4355 8.67263C45.0745 8.27241 44.7796 7.72925 44.5545 7.85919C44.332 7.99433 43.6309 9.24698 43.6309 9.24698L43.468 9.06246L43.693 8.44913L43.6542 8.24902C43.8327 8.07489 43.7732 7.87738 43.7732 7.87738L44.2001 7.3706C44.2001 7.3706 43.9647 6.95738 43.8586 7.1471C43.7499 7.33162 43.6542 7.1471 43.6542 7.1471C43.6542 7.1471 43.7034 7.00156 43.7034 6.86642C43.7034 6.73128 43.2662 6.49219 43.2662 6.49219C43.2662 6.49219 42.829 6.73388 42.829 6.86642C42.829 6.99897 42.8756 7.1471 42.8756 7.1471C42.8756 7.1471 42.7798 7.33162 42.6712 7.1471C42.5677 6.95738 42.3297 7.3706 42.3297 7.3706L42.754 7.87738C42.754 7.87738 42.6996 8.07749 42.8756 8.24902L42.8367 8.44913L43.0618 9.06246L42.8988 9.24698C42.8988 9.24698 42.2004 7.99693 41.9753 7.85919C41.7502 7.72925 41.4527 8.27241 42.0917 8.67263C42.7307 9.07546 43.0515 11.3261 43.1575 11.3677L43.2636 11.4066Z" fill="#221E1F"/>
<path d="M41.6727 11.6302C41.6727 11.6302 41.5615 11.3443 41.2329 11.1182C40.9173 10.8973 40.418 10.3645 39.1892 10.6036C37.963 10.8479 38.8477 11.703 38.8477 11.703C38.8477 11.703 39.1142 12.085 39.7092 11.8173C40.3042 11.5444 40.5086 11.3963 41.0415 11.5626C41.5744 11.7341 41.489 11.703 41.6701 11.6276" fill="#221E1F"/>
<path d="M44.8574 11.6302C44.8574 11.6302 44.9661 11.3443 45.2946 11.1182C45.6154 10.8973 46.1147 10.3645 47.3409 10.6036C48.5645 10.8479 47.6772 11.703 47.6772 11.703C47.6772 11.703 47.4108 12.085 46.8183 11.8173C46.2233 11.5444 46.0164 11.3963 45.4835 11.5626C44.9531 11.7341 45.0385 11.703 44.8574 11.6276" fill="#221E1F"/>
<path d="M42.5321 11.3471C42.5321 11.3471 42.6511 11.0638 42.5632 10.9001C42.4778 10.7363 41.9242 9.8813 41.9242 9.8813C41.9242 9.8813 41.4663 9.27057 41.1067 9.15882C40.7445 9.04447 40.5505 9.05746 40.3073 9.13543C40.0642 9.21339 39.7537 9.40831 39.7744 9.61362C39.7977 9.81893 39.9995 10.1906 40.2142 10.2166C40.4237 10.2477 40.7497 10.2425 40.9903 10.3699C41.2335 10.4998 41.65 10.7935 41.65 10.7935C41.65 10.7935 42.3096 11.5134 42.5321 11.3497" fill="#221E1F"/>
<path d="M43.9959 11.3471C43.9959 11.3471 43.8795 11.0638 43.9649 10.9001C44.0502 10.7363 44.6064 9.8813 44.6064 9.8813C44.6064 9.8813 45.0617 9.27057 45.4239 9.15882C45.7887 9.04447 45.9775 9.05746 46.2233 9.13543C46.4691 9.21339 46.7769 9.40831 46.7562 9.61362C46.7355 9.81893 46.5311 10.1906 46.319 10.2166C46.1043 10.2477 45.7783 10.2425 45.5429 10.3699C45.2972 10.4998 44.8832 10.7935 44.8832 10.7935C44.8832 10.7935 44.2236 11.5134 43.9985 11.3497" fill="#221E1F"/>
</svg>
