<svg width="30" height="30" viewBox="0 0 30 30" fill="none" xmlns="http://www.w3.org/2000/svg">
<g id="iconamoon:lock-thin">
<g id="Group">
<path id="Vector" d="M10.0142 12.5556V8.88889C10.0142 7.59227 10.5292 6.34877 11.4461 5.43192C12.3629 4.51508 13.6064 4 14.903 4C16.1997 4 17.4432 4.51508 18.36 5.43192C19.2769 6.34877 19.7919 7.59227 19.7919 8.88889V12.5556" stroke="#009ba4" stroke-linecap="round"/>
<path id="Vector_2" d="M6.34717 12.5557H23.4583V23.5557C23.4583 24.204 23.2007 24.8257 22.7423 25.2841C22.2839 25.7426 21.6621 26.0001 21.0138 26.0001H8.79161C8.14331 26.0001 7.52155 25.7426 7.06313 25.2841C6.60471 24.8257 6.34717 24.204 6.34717 23.5557V12.5557Z" stroke="#009ba4" stroke-linejoin="round"/>
<path id="Vector_3" d="M17.9585 19.2778H17.9709V19.2902H17.9585V19.2778Z" stroke="#009ba4" stroke-width="1.5" stroke-linejoin="round"/>
</g>
</g>
</svg>
