<svg width="21" height="22" viewBox="0 0 21 22" fill="none" xmlns="http://www.w3.org/2000/svg">
<g id="_&#235;&#160;&#136;&#236;&#157;&#180;&#236;&#150;&#180;_1" clip-path="url(#clip0_2_2739)">
<path id="Vector" d="M10.5047 0.970874C12.57 0.970874 14.248 2.61165 14.248 4.63107C14.248 6.65049 12.57 8.29126 10.5047 8.29126C8.43948 8.29126 6.76146 6.65049 6.76146 4.63107C6.76146 2.61165 8.43948 0.970874 10.5047 0.970874ZM10.5047 0C7.88345 0 5.76855 2.07767 5.76855 4.63107C5.76855 7.18447 7.89338 9.26214 10.5047 9.26214C13.1161 9.26214 15.2409 7.18447 15.2409 4.63107C15.2409 2.07767 13.1161 0 10.5047 0Z" fill="#009ba4"/>
<g id="Group">
<path id="Vector_2" d="M1.50935 21.5144C0.95332 21.5144 0.496582 21.0678 0.496582 20.5241C0.496582 15.3008 4.84552 11.0581 10.1774 11.0581H10.8228C16.1647 11.0581 20.5037 15.3105 20.5037 20.5241C20.5037 21.0678 20.0469 21.5144 19.4909 21.5144H1.50935Z" fill="white"/>
<path id="Vector_3" d="M10.8227 11.5436C15.8865 11.5436 20.0071 15.5728 20.0071 20.5242C20.0071 20.7961 19.7787 21.0291 19.4908 21.0291H1.50922C1.23121 21.0291 0.992908 20.8058 0.992908 20.5242C0.992908 15.5728 5.11348 11.5436 10.1773 11.5436H10.8227ZM10.8227 10.5728H10.1773C4.55745 10.5728 0 15.0291 0 20.5242C0 21.3397 0.675177 21.9999 1.50922 21.9999H19.5007C20.3348 21.9999 21.0099 21.3397 21.0099 20.5242C21.0099 15.0291 16.4525 10.5728 10.8326 10.5728H10.8227Z" fill="#009ba4"/>
</g>
</g>
<defs>
<clipPath id="clip0_2_2739">
<rect width="21" height="22" fill="white"/>
</clipPath>
</defs>
</svg>
