<svg width="30" height="30" viewBox="0 0 30 30" fill="none" xmlns="http://www.w3.org/2000/svg">
<g id="iconamoon:lock-thin">
<g id="Group">
<path id="Vector" d="M10.0146 12.5556V8.88889C10.0146 7.59227 10.5297 6.34877 11.4466 5.43192C12.3634 4.51508 13.6069 4 14.9035 4C16.2001 4 17.4437 4.51508 18.3605 5.43192C19.2773 6.34877 19.7924 7.59227 19.7924 8.88889" stroke="black" stroke-linecap="round"/>
<path id="Vector_2" d="M6.34766 12.5557H23.4588V23.5557C23.4588 24.204 23.2012 24.8257 22.7428 25.2841C22.2844 25.7426 21.6626 26.0001 21.0143 26.0001H8.7921C8.14379 26.0001 7.52204 25.7426 7.06362 25.2841C6.6052 24.8257 6.34766 24.204 6.34766 23.5557V12.5557Z" stroke="black" stroke-linejoin="round"/>
<path id="Vector_3" d="M17.959 19.2778H17.9714V19.2902H17.959V19.2778Z" stroke="black" stroke-width="1.5" stroke-linejoin="round"/>
</g>
</g>
</svg>
