<svg width="29" height="29" viewBox="0 0 29 29" fill="none" xmlns="http://www.w3.org/2000/svg">
<g id="iconamoon:shopping-bag-thin">
<g id="Group">
<path id="Vector" d="M4.05556 10.5834H24.9444L23.8543 22.5697C23.7954 23.2184 23.496 23.8217 23.0151 24.2611C22.5342 24.7005 21.9064 24.9442 21.2549 24.9445H7.74506C7.09363 24.9442 6.46583 24.7005 5.9849 24.2611C5.50397 23.8217 5.20465 23.2184 5.14569 22.5697L4.05556 10.5834Z" stroke="white" stroke-linejoin="round"/>
<path id="Vector_2" d="M9.27778 13.1945V9.27783C9.27778 7.89281 9.82798 6.56451 10.8073 5.58516C11.7867 4.6058 13.115 4.0556 14.5 4.0556C15.885 4.0556 17.2133 4.6058 18.1927 5.58516C19.172 6.56451 19.7222 7.89281 19.7222 9.27783V13.1945" stroke="white" stroke-linecap="round"/>
</g>
</g>
</svg>
