<svg width="32" height="32" viewBox="0 0 32 32" fill="none" xmlns="http://www.w3.org/2000/svg">
<g id="jt-instagram">
<path id="Vector" d="M16.0001 11.778C13.7178 11.778 11.7778 13.718 11.7778 16.0002C11.7778 18.2825 13.7178 20.2225 16.0001 20.2225C18.2823 20.2225 20.2223 18.2825 20.2223 16.0002C20.2223 13.718 18.2823 11.778 16.0001 11.778Z" fill="#999999"/>
<path id="Vector_2" d="M21.4123 3.33331H10.7032C6.55774 3.33331 3.3335 6.55756 3.3335 10.5879V21.2969C3.3335 25.4424 6.55774 28.6666 10.7032 28.6666H21.4123C25.4426 28.6666 28.6668 25.4424 28.6668 21.2969V10.5879C28.6668 6.55756 25.4426 3.33331 21.4123 3.33331ZM16.0002 22.6788C12.3153 22.6788 9.43653 19.6848 9.43653 16.1151C9.43653 12.5454 12.3153 9.43634 16.0002 9.43634C19.685 9.43634 22.5638 12.4303 22.5638 16C22.5638 19.5697 19.685 22.6788 16.0002 22.6788ZM22.7941 10.8182C21.988 10.8182 21.2971 10.1273 21.2971 9.32119C21.2971 8.51513 21.988 7.82422 22.7941 7.82422C23.6002 7.82422 24.2911 8.51513 24.2911 9.32119C24.2911 10.1273 23.6002 10.8182 22.7941 10.8182Z" fill="#999999"/>
</g>
</svg>
