<svg width="32" height="32" viewBox="0 0 32 32" fill="none" xmlns="http://www.w3.org/2000/svg">
<g id="jt-youtube">
<g id="Group">
<path id="Exclude" fill-rule="evenodd" clip-rule="evenodd" d="M27.4639 6.28761C28.7265 6.62394 29.7199 7.62259 30.0563 8.89547C30.6668 11.1981 30.6617 15.9998 30.6617 15.9998C30.6617 15.9998 30.6617 20.8016 30.0511 23.1042C29.7148 24.3719 28.7213 25.3706 27.4587 25.7121C25.1717 26.3278 15.9976 26.3278 15.9976 26.3278C15.9976 26.3278 6.82347 26.3278 4.53641 25.7121C3.27387 25.3757 2.2804 24.3771 1.94407 23.1042C1.3335 20.8016 1.3335 15.9998 1.3335 15.9998C1.3335 15.9998 1.3335 11.1981 1.94924 8.8903C2.28557 7.62259 3.27905 6.62394 4.54159 6.28243C6.82865 5.66669 16.0028 5.66669 16.0028 5.66669C16.0028 5.66669 25.1717 5.66669 27.4639 6.28761ZM20.67 15.9999L13.0016 11.6379V20.3619L20.67 15.9999Z" fill="#999999"/>
</g>
</g>
</svg>
