<svg width="24" height="24" viewBox="0 0 24 24" fill="none" xmlns="http://www.w3.org/2000/svg">
<g id="&#234;&#179;&#181;&#236;&#156;&#160;">
<g id="Group">
<path id="Vector" d="M15.8816 8.90349C16.9595 8.90349 17.8333 8.02967 17.8333 6.95175C17.8333 5.87383 16.9595 5 15.8816 5C14.8036 5 13.9298 5.87383 13.9298 6.95175C13.9298 8.02967 14.8036 8.90349 15.8816 8.90349Z" stroke="#999999" stroke-miterlimit="10" stroke-linecap="round" stroke-linejoin="round"/>
<path id="Vector_2" d="M4.95175 15.1491C6.02967 15.1491 6.90349 14.2753 6.90349 13.1974C6.90349 12.1194 6.02967 11.2456 4.95175 11.2456C3.87383 11.2456 3 12.1194 3 13.1974C3 14.2753 3.87383 15.1491 4.95175 15.1491Z" stroke="#999999" stroke-miterlimit="10" stroke-linecap="round" stroke-linejoin="round"/>
<path id="Vector_3" d="M15.8816 19.8332C16.9595 19.8332 17.8333 18.9594 17.8333 17.8814C17.8333 16.8035 16.9595 15.9297 15.8816 15.9297C14.8036 15.9297 13.9298 16.8035 13.9298 17.8814C13.9298 18.9594 14.8036 19.8332 15.8816 19.8332Z" stroke="#999999" stroke-miterlimit="10" stroke-linecap="round" stroke-linejoin="round"/>
<path id="Vector_4" d="M6.90369 13.978L13.93 17.1008M13.93 8.1228L6.90369 12.0263" stroke="#999999" stroke-miterlimit="10" stroke-linecap="round" stroke-linejoin="round"/>
</g>
</g>
</svg>
