<svg width="24" height="24" viewBox="0 0 24 24" fill="none" xmlns="http://www.w3.org/2000/svg">
<g id="&#237;&#149;&#152;&#237;&#138;&#184;">
<path id="Vector" d="M12.5467 20.4834L19.4151 13.549C20.3057 12.6391 20.8029 11.4155 20.7994 10.1423C20.7959 8.86906 20.292 7.64825 19.3964 6.74328C18.9567 6.29484 18.4323 5.93829 17.8537 5.69439C17.275 5.45048 16.6536 5.32408 16.0256 5.32255C15.3976 5.32101 14.7756 5.44437 14.1957 5.68544C13.6158 5.92652 13.0897 6.28049 12.6479 6.72678L11.9923 7.39008L11.3268 6.71908L11.2168 6.61018C10.3203 5.75327 9.12324 5.28269 7.88324 5.29977C6.64325 5.31684 5.45956 5.82021 4.58707 6.70148C2.73027 8.57698 2.73907 11.6251 4.60467 13.5094L11.5094 20.4834C11.7954 20.7727 12.2607 20.7727 12.5467 20.4834ZM13.43 7.50008C13.7696 7.15729 14.174 6.88552 14.6196 6.70058C15.0653 6.51564 15.5433 6.42124 16.0258 6.42288C16.5083 6.42452 16.9857 6.52216 17.4301 6.71012C17.8745 6.89808 18.277 7.1726 18.6143 7.51768C19.3059 8.21683 19.6953 9.15964 19.6986 10.1431C19.7019 11.1265 19.3188 12.0719 18.6319 12.7757V12.7779L12.0275 19.4439L5.38567 12.735C3.94137 11.2764 3.94027 8.91798 5.36917 7.47478C5.70817 7.13236 6.11195 6.86086 6.55696 6.6761C7.00197 6.49135 7.47932 6.39704 7.96116 6.39868C8.443 6.40032 8.91969 6.49787 9.36343 6.68565C9.80718 6.87342 10.2091 7.14766 10.5458 7.49238L11.6018 8.55938C11.6529 8.61109 11.7138 8.65215 11.7809 8.68017C11.8481 8.70819 11.9201 8.72262 11.9928 8.72262C12.0656 8.72262 12.1376 8.70819 12.2047 8.68017C12.2718 8.65215 12.3327 8.61109 12.3839 8.55938L13.43 7.50008Z" fill="#f60"/>
</g>
</svg>
