<svg width="18" height="18" viewBox="0 0 18 18" fill="none" xmlns="http://www.w3.org/2000/svg">
<g id="iconamoon:shopping-bag-thin">
<g id="Group">
<path id="Vector" d="M2.33325 6.5H15.6666L14.9708 14.1508C14.9331 14.5649 14.7421 14.95 14.4351 15.2305C14.1281 15.5109 13.7274 15.6665 13.3116 15.6667H4.68825C4.27245 15.6665 3.87173 15.5109 3.56475 15.2305C3.25777 14.95 3.06672 14.5649 3.02909 14.1508L2.33325 6.5Z" stroke="white" stroke-linejoin="round"/>
<path id="Vector_2" d="M5.6665 8.16659V5.66659C5.6665 4.78253 6.01769 3.93468 6.64281 3.30956C7.26794 2.68444 8.11578 2.33325 8.99984 2.33325C9.88389 2.33325 10.7317 2.68444 11.3569 3.30956C11.982 3.93468 12.3332 4.78253 12.3332 5.66659V8.16659" stroke="white" stroke-linecap="round"/>
</g>
</g>
</svg>
