<svg width="26" height="20" viewBox="0 0 26 20" fill="none" xmlns="http://www.w3.org/2000/svg">
<g id="_&#235;&#160;&#136;&#236;&#157;&#180;&#236;&#150;&#180;_1" clip-path="url(#clip0_2_2182)">
<path id="Vector" d="M16.32 0.5H1.82C1.09098 0.5 0.5 1.09098 0.5 1.82V14.18C0.5 14.909 1.09098 15.5 1.82 15.5H16.32C17.049 15.5 17.64 14.909 17.64 14.18V1.82C17.64 1.09098 17.049 0.5 16.32 0.5Z" fill="#BEE1E4" stroke="#555555" stroke-linecap="round" stroke-linejoin="round"/>
<path id="Vector_2" d="M25.4999 7.25H17.6399V15.5H25.4999V7.25Z" stroke="#555555" stroke-linecap="round" stroke-linejoin="round"/>
<path id="Vector_3" d="M25.4999 7.25012H17.6399V3.12012H21.4999L25.4999 7.25012Z" stroke="#555555" stroke-linecap="round" stroke-linejoin="round"/>
<path id="Vector_4" d="M6.88001 18.8999C8.74121 18.8999 10.25 17.3911 10.25 15.5299C10.25 13.6687 8.74121 12.1599 6.88001 12.1599C5.01881 12.1599 3.51001 13.6687 3.51001 15.5299C3.51001 17.3911 5.01881 18.8999 6.88001 18.8999Z" fill="white" stroke="#555555" stroke-linecap="round" stroke-linejoin="round"/>
<path id="Vector_5" d="M19.12 18.8999C20.9812 18.8999 22.49 17.3911 22.49 15.5299C22.49 13.6687 20.9812 12.1599 19.12 12.1599C17.2588 12.1599 15.75 13.6687 15.75 15.5299C15.75 17.3911 17.2588 18.8999 19.12 18.8999Z" fill="white" stroke="#555555" stroke-linecap="round" stroke-linejoin="round"/>
</g>
<defs>
<clipPath id="clip0_2_2182">
<rect width="26" height="19.41" fill="white"/>
</clipPath>
</defs>
</svg>
