<svg width="26" height="16" viewBox="0 0 26 16" fill="none" xmlns="http://www.w3.org/2000/svg">
<g id="_&#235;&#160;&#136;&#236;&#157;&#180;&#236;&#150;&#180;_1" clip-path="url(#clip0_2_2190)">
<g id="Group">
<g id="Group_2">
<path id="Vector" d="M22.5 8C22.5 6.34 23.84 5 25.5 5V0.5H0.5V5C2.16 5 3.5 6.34 3.5 8C3.5 9.66 2.16 11 0.5 11V15.5H25.5V11C23.84 11 22.5 9.66 22.5 8Z" stroke="#555555" stroke-linecap="round" stroke-linejoin="round"/>
<path id="Vector_2" d="M22.5 8C22.5 9.66 23.84 11 25.5 11" stroke="#555555" stroke-linecap="round" stroke-linejoin="round"/>
</g>
<path id="Vector_3" d="M8.31006 0.5V15.5" stroke="#555555" stroke-linecap="round" stroke-linejoin="round"/>
</g>
<path id="Vector_4" d="M0.5 0.5V5C2.16 5 3.5 6.34 3.5 8C3.5 9.66 2.16 11 0.5 11V15.5H8.31V0.5H0.5Z" fill="#BEE1E4" stroke="#555555" stroke-linecap="round" stroke-linejoin="round"/>
</g>
<defs>
<clipPath id="clip0_2_2190">
<rect width="26" height="16" fill="white"/>
</clipPath>
</defs>
</svg>
