<svg width="22" height="23" viewBox="0 0 22 23" fill="none" xmlns="http://www.w3.org/2000/svg">
<g id="_&#235;&#160;&#136;&#236;&#157;&#180;&#236;&#150;&#180;_1" clip-path="url(#clip0_2_2167)">
<path id="Vector" d="M10.5801 1C12.6601 1 14.3501 2.69 14.3501 4.77C14.3501 6.85 12.6601 8.54 10.5801 8.54C8.50006 8.54 6.81006 6.85 6.81006 4.77C6.81006 2.69 8.50006 1 10.5801 1ZM10.5801 0C7.94006 0 5.81006 2.14 5.81006 4.77C5.81006 7.4 7.95006 9.54 10.5801 9.54C13.2101 9.54 15.3501 7.4 15.3501 4.77C15.3501 2.14 13.2101 0 10.5801 0Z" fill="#555555"/>
<g id="Group">
<path id="Vector_2" d="M1.52 22.1599C0.96 22.1599 0.5 21.6999 0.5 21.1399C0.5 15.7599 4.88 11.3899 10.25 11.3899H10.9C16.28 11.3899 20.65 15.7699 20.65 21.1399C20.65 21.6999 20.19 22.1599 19.63 22.1599H1.52Z" fill="#BEE1E4"/>
<path id="Vector_3" d="M10.9 11.8899C16 11.8899 20.15 16.0399 20.15 21.1399C20.15 21.4199 19.92 21.6599 19.63 21.6599H1.52C1.24 21.6599 1 21.4299 1 21.1399C1 16.0399 5.15 11.8899 10.25 11.8899H10.9ZM10.9 10.8899H10.25C4.59 10.8899 0 15.4799 0 21.1399C0 21.9799 0.68 22.6599 1.52 22.6599H19.64C20.48 22.6599 21.16 21.9799 21.16 21.1399C21.16 15.4799 16.57 10.8899 10.91 10.8899H10.9Z" fill="#555555"/>
</g>
</g>
<defs>
<clipPath id="clip0_2_2167">
<rect width="21.15" height="22.66" fill="white"/>
</clipPath>
</defs>
</svg>
