<svg width="66" height="23" viewBox="0 0 66 23" fill="none" xmlns="http://www.w3.org/2000/svg">
<g id="_&#234;&#178;&#169;&#235;&#166;&#172;_&#235;&#170;&#168;&#235;&#147;&#156;" clip-path="url(#clip0_2_1606)">
<path id="Vector" d="M63.3273 5.51958L60.1624 12.8092L56.5826 5.51958H53.8277L58.9032 15.6324L56.8093 20.3523H59.4821L66.0001 5.5147H63.3273V5.51958ZM52.2983 16.7928H49.6834V15.7396C48.7378 16.5637 47.6089 17.022 46.2387 17.022C43.1076 17.022 40.6567 14.4475 40.6567 11.1562C40.6567 7.86492 43.1076 5.29041 46.2387 5.29041C47.604 5.29041 48.7378 5.74875 49.6834 6.57279V5.51958H52.2983V16.788V16.7928ZM49.9874 11.1562C49.9874 9.03028 48.5207 7.41633 46.5716 7.41633C44.6225 7.41633 43.1558 9.03028 43.1558 11.1562C43.1558 13.2821 44.6225 14.8961 46.5716 14.8961C48.5159 14.8961 49.9874 13.2821 49.9874 11.1562ZM27.6497 20.3572H30.3804V15.8372C31.3019 16.6027 32.397 17.022 33.7093 17.022C36.8404 17.022 39.2913 14.4475 39.2913 11.1562C39.2913 7.86492 36.8404 5.29041 33.7093 5.29041C32.344 5.29041 31.2102 5.74875 30.2646 6.57279V5.51958H27.6497V20.3572ZM33.3764 7.41633C35.3207 7.41633 36.7922 9.03028 36.7922 11.1562C36.7922 13.2821 35.3255 14.8961 33.3764 14.8961C31.4273 14.8961 29.9606 13.2821 29.9606 11.1562C29.9606 9.03028 31.4273 7.41633 33.3764 7.41633Z" fill="white"/>
<path id="Vector_2" d="M22.7575 11.5024C22.7575 17.8558 17.6627 23.0049 11.3763 23.0049C5.08991 23.0049 0 17.851 0 11.5024C0 5.15391 5.09474 0 11.3811 0C17.6675 0 22.7623 5.14904 22.7623 11.5024H22.7575ZM13.282 6.09498V11.8779L9.30658 6.09498H6.02588V16.905H9.47061V11.1221L13.4461 16.905H16.7268V6.09498H13.282Z" fill="white"/>
</g>
<defs>
<clipPath id="clip0_2_1606">
<rect width="66" height="23" fill="white"/>
</clipPath>
</defs>
</svg>
