<svg width="82" height="22" viewBox="0 0 82 22" fill="none" xmlns="http://www.w3.org/2000/svg">
<g id="_&#227;&#131;&#172;&#227;&#130;&#164;&#227;&#131;&#164;&#227;&#131;&#188;_1" clip-path="url(#clip0_957_505)">
<g id="Group">
<path id="Vector" d="M33.2815 0.847598L33.2207 1.95555H33.131C31.9826 0.986453 31.3462 0.714528 30.2874 0.714528C28.4128 0.746349 27.3541 2.10598 27.3541 4.49834V7.86848H30.8631V8.58301H27.3541V21.4532H24.9646V8.58012H22.876V8.42969L24.9646 7.72384V5.32569C24.9646 2.23905 26.871 0 30.0762 0C31.2276 0 32.1041 0.242997 33.2844 0.847598H33.2815Z" fill="black"/>
<path id="Vector_2" d="M56.2071 17.7911C56.2071 20.6955 53.5139 21.7542 50.6992 21.7542C48.9751 21.7542 47.6733 21.4823 46.2529 20.7244L46.3137 19.5268H46.4352C47.7977 20.5855 49.0069 21.0397 50.7628 21.0397C52.6345 21.0397 54.1214 20.3917 54.1214 18.7891C54.1214 14.6437 46.6174 15.9744 46.6174 11.3169C46.6174 8.68446 49.0387 7.56494 51.7609 7.56494C53.3027 7.56494 54.3615 7.83687 55.9063 8.56297L55.8455 9.72877H55.724C54.3615 8.67 53.242 8.24765 51.729 8.24765C50.2161 8.24765 48.7032 9.02582 48.7032 10.4173C48.7032 14.1779 56.2071 12.8877 56.2071 17.7911Z" fill="black"/>
<path id="Vector_3" d="M66.9429 20.0907C66.3672 20.9991 65.3085 21.7541 63.6133 21.7541C61.3135 21.7541 59.922 20.5131 59.922 17.9703V8.5802H57.8652V8.42977L60.1332 7.63424C60.7089 6.4829 61.3424 4.99309 62.1611 3.56982H62.3115V7.86567H66.7288V8.5802H62.3115V18.0339C62.3115 19.8796 63.2199 20.7879 64.7617 20.7879C65.5196 20.7879 66.3065 20.4552 66.7578 19.9403L66.94 20.0907H66.9429Z" fill="black"/>
<path id="Vector_4" d="M81.8205 19.9404C81.5717 20.4264 81.1175 20.788 80.5997 20.788C79.188 20.788 79.162 19.1073 79.162 18.0341V12.3468C79.162 9.19939 77.4668 7.56494 73.7466 7.56494C72.2047 7.56494 70.8422 7.95837 69.3292 8.77414L69.3611 9.91102H69.4826C70.874 8.73075 72.144 8.27658 73.5383 8.27658C75.6559 8.27658 76.7464 9.6391 76.7464 11.8781V13.9407C71.3311 14.3342 68.7275 16.0062 68.7275 18.6097C68.7275 20.545 70.1479 21.7571 72.387 21.7571C73.5094 21.7571 74.8054 21.303 75.5604 20.5393L75.4447 20.3049C74.8198 20.6955 74.0648 20.8488 73.385 20.8488C72.0543 20.8488 71.2356 19.9723 71.2356 18.4593C71.2356 16.2203 73.0205 14.9879 76.7436 14.6553V18.9424C76.7436 19.2317 76.8014 19.6049 76.8014 19.6049C77.0589 21.0339 78.1668 21.7571 79.5294 21.7571C80.7501 21.7571 81.5341 21.0484 82.0027 20.0938L81.8205 19.9433V19.9404Z" fill="black"/>
<path id="Vector_5" d="M7.41431 10.9437C10.258 9.91384 11.7998 8.62364 11.7998 6.47427C11.7998 3.7203 9.31779 2.11768 5.47612 2.11768H0V21.4504H5.38644C10.0468 21.4504 13.0119 19.4544 13.0119 16.1566C13.0119 13.3129 10.7729 11.2156 7.41431 10.9437ZM5.35751 20.8458C4.17724 20.8458 3.30071 20.7561 2.54279 20.5131V2.72517H5.02484C7.65731 2.72517 9.1095 3.99512 9.1095 6.44534C9.1095 8.31989 8.20116 9.88491 6.56671 10.9148H3.84167V11.69H5.47901C8.53383 11.69 10.2898 13.3447 10.2898 16.4314C10.2898 19.518 8.68715 20.8487 5.35751 20.8487V20.8458Z" fill="black"/>
<path id="Vector_6" d="M44.0229 19.0928C42.9641 19.8797 41.7549 20.3628 40.3027 20.3628C37.3983 20.3628 35.1303 18.6068 35.1303 13.6774C35.1303 13.6774 35.0262 11.0855 36.0184 9.57542C36.5536 8.76253 37.3491 8.21868 38.5467 8.21868C40.3721 8.21868 41.3991 9.48574 41.4222 13.0323C41.4222 12.9918 41.4222 13.0728 41.4222 13.0323H36.4292V13.8047H44.0258V13.1596C44.0258 10.0441 41.9082 7.56201 38.7926 7.56201C35.6771 7.56201 32.5586 9.92256 32.5586 14.7015C32.5586 18.9366 35.1014 21.7513 39.0327 21.7513C41.3933 21.7513 43.0885 20.7533 44.1154 19.1796L44.0229 19.0899V19.0928Z" fill="black"/>
<path id="Vector_7" d="M16.5234 2.63261C16.5234 1.66352 17.1888 0.969238 18.1579 0.969238C19.127 0.969238 19.7923 1.66352 19.7923 2.63261C19.7923 3.60171 19.127 4.26706 18.1579 4.26706C17.1888 4.26706 16.5234 3.57278 16.5234 2.63261ZM16.9487 8.34594V21.4504H19.37V7.53016L16.9487 8.34594Z" fill="black"/>
</g>
</g>
<defs>
<clipPath id="clip0_957_505">
<rect width="82" height="21.754" fill="white"/>
</clipPath>
</defs>
</svg>
