<svg width="90" height="34" viewBox="0 0 90 34" fill="none" xmlns="http://www.w3.org/2000/svg">
<g clip-path="url(#clip0_268_672)">
<path d="M21.6178 8.51061C22.4196 8.51061 23.05 7.48585 23.05 6.17745C23.05 4.86905 22.4196 3.83057 21.6178 3.83057C20.8159 3.83057 20.1484 4.8599 20.1484 6.17745C20.1484 7.495 20.7881 8.51061 21.6178 8.51061Z" fill="#6C5D35"/>
<path d="M5.03331 22.7794V15.6976C5.03331 15.08 5.79347 15.0068 6.12256 15.0022C6.69268 14.9931 7.27207 14.9885 7.84682 14.9885C11.8145 14.9885 13.5944 17.3125 13.5944 19.6182C13.5944 22.7245 10.5166 24.3486 7.48065 24.3486C7.15619 24.3486 6.8271 24.3303 6.50728 24.2937L6.4053 24.2754C6.2338 24.2754 6.11793 24.3852 6.10402 24.5407L6.09475 24.6048L6.13183 24.6825C6.16891 24.7695 6.26161 24.8335 6.3914 24.8747L6.45629 24.9021C7.12838 25.0714 7.91635 25.1629 8.72286 25.1629C12.519 25.1629 16.6026 23.3055 16.6026 19.2202C16.6026 16.7361 14.9154 14.7964 11.9489 13.8402C14.0208 12.9024 14.971 11.0953 14.971 9.71373C14.971 6.47475 11.9118 4.82324 5.88154 4.82324C4.82473 4.82324 3.67986 4.87814 2.38666 4.97879L2.19198 4.99251V24.2571C2.19198 25.1263 2.05757 25.9681 1.83045 26.5216L1.67285 26.9151L2.08074 26.7961C3.61496 26.3615 5.02867 25.5746 5.02867 22.7703L5.03331 22.7794ZM4.94524 13.2455V6.69434C4.94524 6.17281 5.05648 6.12249 5.32996 6.05387C5.6266 5.93492 6.16428 5.87545 6.92907 5.87545C8.15738 5.87545 12.176 6.17281 12.176 10.0248C12.176 12.7057 10.6233 13.8036 6.63242 13.9409C6.32651 13.9546 6.0623 13.9592 5.83982 13.9592C4.94524 13.9592 4.94524 13.9409 4.94524 13.2455Z" fill="#6C5D35"/>
<path d="M44.3716 21.0503C45.5258 21.0503 46.7077 20.8078 47.8711 20.3274C47.9036 20.3229 47.9267 20.3046 47.936 20.3046L48.0936 20.1993V20.181C48.2188 20.0621 48.1817 19.902 48.1446 19.8288C48.0241 19.5726 47.6857 19.6138 47.6857 19.6138C47.1341 19.7647 46.5826 19.8974 45.9846 19.9111H45.8131C43.6485 19.9111 39.9822 19.1792 39.7365 14.2567C39.7365 14.1469 39.7458 14.0691 39.7829 14.0416C39.8014 14.0188 39.8616 13.9822 40.0424 13.9822H50.2119L50.2675 13.4972C50.3092 13.1587 50.1655 10.3223 48.4412 8.41003C47.3659 7.22058 45.8966 6.6167 44.0796 6.6167C42.9718 6.6167 37.4189 6.96439 37.4189 13.79C37.4189 18.3328 40.0192 21.0457 44.3716 21.0457V21.0503ZM47.8619 12.8568C47.8387 12.8842 47.7923 12.9254 47.6765 12.9254H39.9497C39.7689 12.9254 39.7689 12.8568 39.7689 12.8156C39.7689 11.6261 40.2788 9.84652 41.4005 8.73027C42.1143 8.02117 42.9857 7.66433 43.9869 7.66433C46.9487 7.66433 47.6672 10.5099 47.8201 11.3745L47.8387 11.4889C47.9221 11.9784 48.0426 12.6463 47.8619 12.8568Z" fill="#6C5D35"/>
<path d="M82.6998 14.6317L82.5932 14.6866C82.0509 14.9428 81.3788 15.2036 80.6743 15.4827C79.6036 15.9035 78.3845 16.3793 77.3231 16.9695C75.9789 17.7014 75.2373 18.9321 75.2373 20.4326C75.2373 22.8893 77.1562 24.2938 80.5167 24.2938C81.8284 24.2938 83.0475 24.065 83.5666 23.8409L83.6315 23.8088C83.6917 23.7722 83.803 23.6853 83.803 23.5252C83.803 23.3422 83.65 23.1867 83.4276 23.1867L83.3534 23.2004C82.9038 23.3605 82.3893 23.4428 81.8655 23.4428C80.8365 23.4428 79.8214 23.118 79.0937 22.5599C78.264 21.924 77.8237 21.0228 77.8237 19.9477C77.8237 17.5596 80.7067 16.576 83.2468 15.7114C83.5156 15.6199 83.7752 15.5284 84.0255 15.4415C84.2109 15.3774 84.4102 15.318 84.5492 15.318C84.6466 15.318 84.6883 15.318 84.6929 15.4827C84.7161 17.8204 84.7022 22.0429 84.6929 23.4291V23.8546C84.6929 26.4439 87.3025 27.6746 88.4891 27.8438L89.2261 27.9445L88.656 27.4824C87.7382 26.7321 87.3628 25.9361 87.3628 24.7421V12.9848C87.3628 9.30664 85.6802 7.52246 82.2224 7.52246C79.3116 7.52246 77.7264 8.43285 76.9245 9.19227C76.2478 9.76412 75.8167 10.5052 75.7842 11.1686C75.7564 11.6032 75.8909 11.9783 76.169 12.2757C76.5861 12.7286 77.4251 12.7881 77.8747 12.4084C78.1435 12.1659 78.1899 11.9143 78.176 11.6124C78.125 10.981 78.1667 10.2994 78.7971 9.59486C79.5155 8.94523 80.4379 8.5335 81.2212 8.5335H81.3788C83.8169 8.5335 84.6929 10.2491 84.6929 11.864C84.6929 13.703 83.942 14.0599 82.6998 14.6409V14.6317Z" fill="#6C5D35"/>
<path d="M57.5586 21.4344C58.583 21.4344 60.0523 21.2651 61.2621 20.4645C62.4162 19.7051 63.0512 18.5248 63.1022 17.0471C63.1996 14.2839 60.5715 13.4468 58.4578 12.7788C56.2932 12.0926 54.9491 11.3881 54.9491 10.0065C54.9491 8.50137 56.2515 7.70077 57.4613 7.59098C59.4266 7.40799 61.1647 8.21315 61.6514 8.45105C61.9342 8.57457 62.2679 8.35497 62.2679 8.05304C62.2679 7.88377 62.1937 7.75567 62.0222 7.64588L61.7441 7.49033C60.8588 7.01913 59.1856 6.65771 57.9202 6.65771C55.0047 6.65771 53.1136 8.31838 53.1136 10.8894C53.1136 13.4605 55.737 14.3388 57.8414 14.9976C59.9457 15.6518 61.2065 16.7589 61.2065 17.9484C61.2065 21.1736 56.5621 20.5194 56.5065 20.5149C54.8749 20.3822 53.5353 19.609 53.1553 19.3666C52.8494 19.2019 52.5156 19.4077 52.5156 19.7005C52.5156 19.8332 52.5805 19.9476 52.6732 20.0025C53.7625 20.8717 55.686 21.4298 57.5586 21.4298V21.4344Z" fill="#6C5D35"/>
<path d="M89.8146 30.5292C78.5327 26.1099 62.6111 23.6669 44.9976 23.6669C37.2477 23.6669 29.7852 24.1381 22.8094 25.0577C22.7862 25.0394 22.7306 24.9433 22.7166 24.4263V23.548C22.7352 22.935 22.7398 22.3219 22.7398 21.6906C22.7398 14.3709 22.3505 10.6653 21.5857 10.6653C20.8209 10.6653 20.4269 14.3709 20.4269 21.6906C20.4269 22.6879 20.4362 23.6532 20.4593 24.5544L20.4501 24.6917C20.4176 25.1446 20.362 25.4191 19.8661 25.5106C12.3757 26.668 5.75677 28.3607 0.180726 30.5383C0.0463074 30.6024 -0.0232193 30.7488 0.0231319 30.886C0.0555777 31.0004 0.176091 31.0919 0.305874 31.0919L0.375401 31.0827C6.66989 29.3855 19.1569 27.1529 20.0607 27.1438C20.4964 27.1438 20.5242 27.2765 20.5242 27.4961C20.9878 33.9923 21.3076 33.9923 21.5903 33.9923C22.0028 33.9923 22.3968 33.4753 22.6471 27.2719C22.6981 26.8876 22.8094 26.8647 23.1384 26.787L23.2451 26.7687C23.551 26.7138 37.4378 25.4786 45.0023 25.4786C60.3862 25.4786 76.2383 27.4686 89.6523 31.0827H89.7172C89.8424 31.0827 89.949 31.0187 89.9953 30.8997L90.0046 30.8448C90.0231 30.7122 89.9536 30.5886 89.8192 30.5337L89.8146 30.5292Z" fill="#6C5D35"/>
<path d="M65.4987 9.57651H67.3945V19.3209C67.3945 22.5919 69.4664 23.3239 71.2695 23.5938L71.5059 23.6304V23.548C71.6125 23.4886 71.6774 23.3788 71.6774 23.2552C71.6774 23.1134 71.5939 22.9899 71.4502 22.9304C70.1014 22.3952 69.9948 21.3887 69.9948 20.3136V9.57651H73.1652C73.2301 9.57651 73.295 9.56279 73.3784 9.53534C73.6195 9.45757 73.7539 9.27458 73.7539 9.00924C73.7539 8.73017 73.5824 8.52888 73.295 8.46941H73.2394C73.1884 8.45568 73.1791 8.45568 73.1791 8.45568H69.9902V3.5835L67.3852 4.77752L67.3713 8.37334V8.46026H65.4848C64.9055 8.46026 64.8174 8.80337 64.8174 9.01381C64.8174 9.14648 64.8684 9.58109 65.4848 9.58109L65.4987 9.57651Z" fill="#6C5D35"/>
<path d="M26.9763 10.121L29.0157 10.1073C29.0157 10.1073 29.0297 10.1988 29.0297 10.3178V22.6103L29.266 22.5874C30.6473 22.4456 31.3472 21.6359 31.3472 20.1856V10.3544C31.3472 10.2766 31.3472 10.1485 31.3843 10.121H34.4805C35.0785 10.121 35.1387 9.73217 35.1387 9.57206C35.1387 9.41194 35.0831 9.05053 34.5547 9.00935H31.3333C31.3148 8.93158 31.3148 8.76231 31.3148 8.61592V7.81075C31.3148 6.70364 31.3889 4.66785 31.871 3.40062C32.1213 2.79217 32.5987 2.07392 33.5025 2.07392C34.2998 2.07392 34.9719 2.66865 35.3844 3.16273C35.5466 3.3686 35.7552 3.56074 36.1631 3.56074C36.7888 3.56074 37.345 3.01634 37.345 2.40331C37.345 1.37398 36.1724 0.60083 34.6242 0.60083C31.63 0.60083 30.2672 3.04379 29.813 4.09599C29.2707 5.43184 29.0111 6.91866 29.0111 8.80349C29.0111 8.86753 29.0111 8.99563 28.9972 9.01393H26.9392C26.5545 9.01393 26.3135 9.22894 26.3135 9.57663C26.3135 9.70473 26.3645 10.1302 26.9809 10.1302L26.9763 10.121Z" fill="#6C5D35"/>
</g>
<defs>
<clipPath id="clip0_268_672">
<rect width="90" height="33.3962" fill="white" transform="translate(0 0.591553)"/>
</clipPath>
</defs>
</svg>
