<svg width="30" height="31" viewBox="0 0 30 31" fill="none" xmlns="http://www.w3.org/2000/svg">
<g id="_&#235;&#160;&#136;&#236;&#157;&#180;&#236;&#150;&#180;_5" clip-path="url(#clip0_2_648)">
<path id="Vector" d="M4.922 0.973877H25.1796C27.5593 0.973877 29.4915 2.90406 29.4915 5.28123V19.0566H0.437256V5.46409C0.437256 2.98533 2.44065 0.973877 4.922 0.973877Z" fill="#BEE1E4"/>
<g id="Group">
<path id="Vector_2" d="M0.437256 5.73825V25.1417C0.437256 27.8236 2.61353 29.9976 5.29827 29.9976H9.44743C10.383 27.8541 12.5186 26.3607 15.0101 26.3607C17.5017 26.3607 19.6373 27.8541 20.5728 29.9976H24.722C27.4067 29.9976 29.583 27.8236 29.583 25.1417V5.73825C29.583 3.05632 27.4067 0.882324 24.722 0.882324H5.2881C2.60336 0.892483 0.437256 3.05632 0.437256 5.73825Z" stroke="black" stroke-width="0.85" stroke-miterlimit="10"/>
<path id="Vector_3" d="M1.64746 19.0667H28.3525" stroke="black" stroke-width="0.85" stroke-miterlimit="10" stroke-linecap="round"/>
<g id="Group_2">
<path id="Vector_4" d="M19.7184 13.3372H16.5049V6.44946" stroke="black" stroke-width="0.85" stroke-miterlimit="10"/>
<g id="Group_3">
<path id="Vector_5" d="M10.3625 13.3371L12.2337 6.91675H12.7727L14.6439 13.3371" stroke="black" stroke-width="0.85" stroke-miterlimit="10"/>
<path id="Vector_6" d="M14.1049 11.1936H10.8914" stroke="black" stroke-width="0.85" stroke-miterlimit="10"/>
</g>
<g id="Group_4">
<path id="Vector_7" d="M24.1015 13.3371H20.8879V6.91675H24.1015" stroke="black" stroke-width="0.85" stroke-miterlimit="10"/>
<path id="Vector_8" d="M20.8879 10.127H24.1015" stroke="black" stroke-width="0.85" stroke-miterlimit="10"/>
</g>
<path id="Vector_9" d="M5.89819 13.337H7.71853C8.49141 13.337 9.11175 12.7173 9.11175 11.9452C9.11175 11.4779 8.87785 11.0411 8.49141 10.7871L6.51853 9.47663C6.13209 9.22266 5.89819 8.78583 5.89819 8.31852C5.89819 7.54645 6.51853 6.92676 7.29141 6.92676H9.11175" stroke="black" stroke-width="0.85" stroke-miterlimit="10"/>
</g>
</g>
</g>
<defs>
<clipPath id="clip0_2_648">
<rect width="30" height="29.9686" fill="white" transform="translate(0 0.455811)"/>
</clipPath>
</defs>
</svg>
