<svg width="30" height="30" viewBox="0 0 30 30" fill="none" xmlns="http://www.w3.org/2000/svg">
<g id="_&#235;&#160;&#136;&#236;&#157;&#180;&#236;&#150;&#180;_5" clip-path="url(#clip0_2_665)">
<path id="Vector" d="M12.8264 3.08887H17.2963C17.7872 3.08887 18.1861 3.48778 18.1861 3.97874V6.03466H11.7524V4.16285C11.7524 3.5696 12.2332 3.08887 12.8264 3.08887Z" fill="#BEE1E4"/>
<path id="Vector_2" d="M18.6362 21.6638L14.9948 19.5466L11.3535 21.6638V6.96559C11.3535 6.37234 11.8343 5.8916 12.4275 5.8916H17.7463C18.2373 5.8916 18.6362 6.29051 18.6362 6.78148V21.6536V21.6638Z" fill="#BEE1E4"/>
<path id="Vector_3" d="M11.9569 6.50517H3.09912V4.86862C3.39575 1.21707 4.66407 0.347656 7.62009 0.347656C9.2055 1.83078 11.9569 2.29106 11.9569 4.68451V6.50517Z" fill="#BEE1E4"/>
<path id="Vector_4" d="M18.094 6.50517H26.9518V4.86862C26.645 1.21707 25.3869 0.347656 22.4309 0.347656C20.8454 1.83078 18.094 2.29106 18.094 4.68451V6.50517Z" fill="#BEE1E4"/>
<g id="Group">
<path id="Vector_5" d="M14.9949 19.5466V29.458" stroke="black" stroke-width="0.85" stroke-miterlimit="10"/>
<g id="Group_2">
<path id="Vector_6" d="M0.439941 16.8154H11.3537" stroke="black" stroke-width="0.85" stroke-miterlimit="10"/>
<path id="Vector_7" d="M18.6362 16.8154H29.5602" stroke="black" stroke-width="0.85" stroke-miterlimit="10"/>
</g>
<g id="Group_3">
<path id="Vector_8" d="M3.11987 7.10861V5.48229C3.11987 1.04315 5.60538 -0.4502 8.03975 0.930638L12.2846 3.68209" stroke="black" stroke-width="0.85" stroke-miterlimit="10"/>
<path id="Vector_9" d="M26.8805 7.10873V5.48241C26.8805 1.03304 24.3848 -0.45008 21.9606 0.930759L17.7158 3.68221" stroke="black" stroke-width="0.85" stroke-miterlimit="10"/>
<path id="Vector_10" d="M11.7527 6.25968V4.47993C11.7527 3.7128 12.3766 3.08887 13.1438 3.08887H16.8055C17.5727 3.08887 18.1966 3.7128 18.1966 4.47993V6.25968" stroke="black" stroke-width="0.85" stroke-miterlimit="10"/>
</g>
<path id="Vector_11" d="M18.6363 6.50537H24.7018C27.3816 6.50537 29.5603 8.6738 29.5603 11.3639V24.712C29.5603 27.3918 27.3918 29.5705 24.7018 29.5705H5.28819C2.60834 29.5705 0.429688 27.4021 0.429688 24.712V11.3639C0.429688 8.68403 2.59812 6.50537 5.28819 6.50537H11.3537" stroke="black" stroke-width="0.85" stroke-miterlimit="10"/>
<path id="Vector_12" d="M17.6647 21.5411L14.9951 19.5056L12.3255 21.5411C11.9266 21.848 11.3538 21.5616 11.3538 21.0604V7.10878C11.3538 6.43371 11.8959 5.8916 12.5709 5.8916H17.4295C18.1045 5.8916 18.6466 6.43371 18.6466 7.10878V21.0501C18.6466 21.5513 18.0738 21.8377 17.6749 21.5309L17.6647 21.5411Z" stroke="black" stroke-width="0.85" stroke-miterlimit="10"/>
</g>
</g>
<defs>
<clipPath id="clip0_2_665">
<rect width="30" height="30" fill="white"/>
</clipPath>
</defs>
</svg>
