<svg width="29" height="30" viewBox="0 0 29 30" fill="none" xmlns="http://www.w3.org/2000/svg">
<g id="_&#235;&#160;&#136;&#236;&#157;&#180;&#236;&#150;&#180;_5" clip-path="url(#clip0_2_633)">
<path id="Vector" d="M22.0236 29.5875C25.6042 29.5875 28.5069 26.6848 28.5069 23.1042C28.5069 19.5235 25.6042 16.6208 22.0236 16.6208C18.443 16.6208 15.5403 19.5235 15.5403 23.1042C15.5403 26.6848 18.443 29.5875 22.0236 29.5875Z" fill="#BEE1E4"/>
<g id="Group">
<g id="Group_2">
<path id="Vector_2" d="M18.2417 28.4971H4.7348C2.34776 28.4971 0.412598 26.5619 0.412598 24.1749V6.89593C0.422421 4.5089 2.34776 2.57373 4.7348 2.57373H6.8959" stroke="black" stroke-width="0.85" stroke-miterlimit="10"/>
<path id="Vector_3" d="M19.8625 2.57373H22.0236C24.4107 2.57373 26.3458 4.5089 26.3458 6.89593V18.2417" stroke="black" stroke-width="0.85" stroke-miterlimit="10"/>
<path id="Vector_4" d="M9.05688 2.57373H17.7013" stroke="black" stroke-width="0.85" stroke-miterlimit="10"/>
<path id="Vector_5" d="M0.422363 10.1375H26.3359" stroke="black" stroke-width="0.85" stroke-miterlimit="10"/>
<path id="Vector_6" d="M7.97655 5.81535C7.38716 5.81535 6.896 5.33401 6.896 4.7348V1.49315C6.896 0.903757 7.37733 0.412598 7.97655 0.412598C8.56594 0.412598 9.0571 0.893934 9.0571 1.49315V4.7348C9.0571 5.32419 8.57576 5.81535 7.97655 5.81535Z" fill="#BEE1E4" stroke="black" stroke-width="0.85" stroke-miterlimit="10"/>
<path id="Vector_7" d="M18.782 5.81535C18.1926 5.81535 17.7014 5.33401 17.7014 4.7348V1.49315C17.7014 0.903757 18.1828 0.412598 18.782 0.412598C19.3714 0.412598 19.8625 0.893934 19.8625 1.49315V4.7348C19.8625 5.32419 19.3812 5.81535 18.782 5.81535Z" fill="#BEE1E4" stroke="black" stroke-width="0.85" stroke-miterlimit="10"/>
<path id="Vector_8" d="M22.0236 29.5875C25.6042 29.5875 28.5069 26.6848 28.5069 23.1042C28.5069 19.5235 25.6042 16.6208 22.0236 16.6208C18.443 16.6208 15.5403 19.5235 15.5403 23.1042C15.5403 26.6848 18.443 29.5875 22.0236 29.5875Z" stroke="black" stroke-width="0.85" stroke-miterlimit="10"/>
</g>
<path id="Vector_9" d="M22.4459 20.1377L23.3202 21.6013L24.9803 21.9844C25.3438 22.0728 25.4911 22.5149 25.2455 22.7997L24.1257 24.0866L24.2829 25.786C24.3123 26.1593 23.939 26.4343 23.5854 26.287L22.0137 25.619L20.442 26.287C20.0982 26.4343 19.7151 26.1593 19.7446 25.786L19.9017 24.0866L18.7819 22.7997C18.5363 22.5149 18.6738 22.0728 19.0471 21.9844L20.7072 21.6013L21.5815 20.1377C21.7779 19.8135 22.2396 19.8135 22.4361 20.1377H22.4459Z" fill="white" stroke="black" stroke-width="0.85" stroke-miterlimit="10"/>
</g>
</g>
<defs>
<clipPath id="clip0_2_633">
<rect width="28.9194" height="30" fill="white"/>
</clipPath>
</defs>
</svg>
